<svg width="128" height="128" viewBox="0 0 128 128" fill="none" xmlns="http://www.w3.org/2000/svg">
<g clip-path="url(#clip0_5271_37491)">
<rect x="20" y="34" width="88" height="22" fill="#FFE700"/>
<rect x="20" y="87" width="88" height="22" fill="#FFE700"/>
<path d="M116.75 15C110.547 15 105.5 20.0468 105.5 26.25V30H52.1227C50.3805 21.452 42.8048 15 33.75 15H22.5V11.25C22.5 5.04675 17.4532 0 11.25 0C5.04675 0 0 5.04675 0 11.25V124.25C0 126.321 1.679 128 3.75 128H18.75C20.821 128 22.5 126.321 22.5 124.25V113H105.5V124.25C105.5 126.321 107.179 128 109.25 128H124.25C126.321 128 128 126.321 128 124.25V26.25C128 20.0468 122.953 15 116.75 15ZM15 71.5C15 87.977 15 106.097 15 120.5H7.5V11.25C7.5 9.18225 9.18225 7.5 11.25 7.5C13.3177 7.5 15 9.18225 15 11.25C15 18.877 15 60.9388 15 71.5ZM22.5 22.5H33.75C38.639 22.5 42.8097 25.6347 44.3575 30H22.5V22.5ZM22.5 75.25H33.75C38.639 75.25 42.8097 78.3847 44.3575 82.75H22.5V75.25ZM105.5 105.5H22.5V90.25C24.9997 90.25 103.008 90.25 105.5 90.25V105.5ZM105.5 82.75H52.1227C50.3807 74.202 42.805 67.75 33.75 67.75H22.5V60.25H105.5V82.75ZM105.5 52.75H22.5V37.5C24.9997 37.5 103.008 37.5 105.5 37.5V52.75ZM120.5 120.5H113C113 113.975 113 30.3825 113 26.25C113 24.1823 114.682 22.5 116.75 22.5C118.818 22.5 120.5 24.1823 120.5 26.25V120.5Z" fill="black"/>
</g>
<defs>
<clipPath id="clip0_5271_37491">
<rect width="128" height="128" fill="white"/>
</clipPath>
</defs>
</svg>
