<svg width="128" height="128" viewBox="0 0 128 128" fill="none" xmlns="http://www.w3.org/2000/svg">
<g clip-path="url(#clip0_5271_37444)">
<path d="M4.5 18C4.66667 41.5 4.9 88.8 4.5 90L4 90.5L13 83.5L21 79.5H109.5V4H26.5L15.5 6.5L4.5 18Z" fill="#FFE700"/>
<path d="M113 15.377V0H26.25C11.7754 0 0 11.7754 0 26.25V101.75C0 116.225 11.7754 128 26.25 128H109.25C119.589 128 128 119.589 128 109.25V33.75C128 24.6953 121.548 17.1191 113 15.377ZM7.5 26.25C7.5 15.9111 15.9111 7.5 26.25 7.5H105.5V75.5H26.25C18.9121 75.5 12.2676 78.5264 7.5 83.3965V26.25ZM109.25 120.5H26.25C15.9111 120.5 7.5 112.089 7.5 101.75C7.5 91.4111 15.9111 83 26.25 83H113V23.1445C117.365 24.6934 120.5 28.8613 120.5 33.75V94.2598C117.364 91.9004 113.468 90.5 109.25 90.5H26.25C20.0469 90.5 15 95.5469 15 101.75C15 107.953 20.0469 113 26.25 113H113V105.5H26.25C24.1826 105.5 22.5 103.817 22.5 101.75C22.5 99.6826 24.1826 98 26.25 98H109.25C115.453 98 120.5 103.047 120.5 109.25C120.5 115.453 115.453 120.5 109.25 120.5Z" fill="black"/>
</g>
<defs>
<clipPath id="clip0_5271_37444">
<rect width="128" height="128" fill="white"/>
</clipPath>
</defs>
</svg>
