<svg width="24" height="24" viewBox="0 0 24 24" fill="none" xmlns="http://www.w3.org/2000/svg">
    <g clip-path="url(#clip0_4103_769)">
        <path d="M24 18.6256C24 19.3824 23.3448 20 22.5424 20H1.4576C0.6552 20 0 19.3824 0 18.6256V5.3744C0 4.6176 0.6552 4 1.4576 4H22.5352C23.3352 4 23.9928 4.6176 23.9928 5.3744V18.6256H24Z" fill="url(#paint0_linear_4103_769)"/>
        <path fill-rule="evenodd" clip-rule="evenodd" d="M12.7411 8.02966C12.7357 8.03415 12.7321 8.88039 12.7321 9.90988V11.7811H16.3129H19.8936L20.0427 11.7407C20.9249 11.4999 21.4675 10.801 21.4675 9.90808C21.4819 9.6534 21.4342 9.39903 21.3283 9.16695C21.1369 8.6549 20.5898 8.20843 19.9808 8.0647L19.8568 8.03595H16.3048C14.3509 8.03595 12.7483 8.03595 12.7438 8.04134M5.52746 8.08446C4.871 8.16523 4.25198 8.43438 3.74519 8.85939C3.23841 9.2844 2.86554 9.84707 2.67165 10.4794C2.54229 10.9034 2.52612 11.0597 2.52612 11.9239C2.52612 12.7881 2.53421 12.869 2.6438 13.2966C2.80331 13.8683 3.10724 14.3893 3.52636 14.8095C3.94549 15.2298 4.46571 15.5351 5.03697 15.6961C5.15474 15.731 5.27481 15.7578 5.3963 15.776C5.8284 15.847 9.26633 15.8515 9.68585 15.7814C11.3927 15.4966 12.547 14.1401 12.583 12.3893L12.5902 12.0299H10.0676H7.54602V11.7964H10.0676H12.5902L12.5839 11.4748C12.5849 11.0297 12.4979 10.5889 12.3279 10.1776C12.0969 9.61384 11.7201 9.12175 11.236 8.75184C10.752 8.38194 10.1782 8.14756 9.57356 8.07278C9.29148 8.03595 5.80864 8.03595 5.52117 8.07278M12.7339 12.0443C12.7339 12.0533 12.7294 12.9004 12.7339 13.9308V15.7976H16.2212C19.952 15.7976 19.8334 15.7976 20.0787 15.7338C20.34 15.6632 20.5831 15.5372 20.7914 15.3644C20.9998 15.1916 21.1684 14.9759 21.286 14.7321C21.4036 14.4883 21.4674 14.222 21.473 13.9514C21.4786 13.6808 21.4258 13.4121 21.3184 13.1636C21.127 12.7253 20.7219 12.3273 20.3122 12.1755C20.1977 12.1314 20.0804 12.095 19.961 12.0668L19.8379 12.0389H16.2895C13.4328 12.0389 12.7393 12.0389 12.7339 12.0524" fill="#FBFBFB"/>
        <path fill-rule="evenodd" clip-rule="evenodd" d="M12.7321 8.01794C12.7321 8.02692 15.0894 8.02692 18.4626 8.01794C19.1561 8.01794 18.1509 8.01255 16.2285 8.01165C14.306 8.01075 12.7321 8.01165 12.7321 8.01794ZM19.7472 8.02961C19.762 8.0332 19.7774 8.0332 19.7922 8.02961C19.8047 8.02961 19.7922 8.02422 19.7697 8.02422C19.7472 8.02422 19.7347 8.02422 19.7472 8.02961ZM6.70522 8.04399C7.17236 8.04399 7.93594 8.04399 8.40307 8.04399C8.87021 8.04399 8.48752 8.04399 7.55415 8.04399C6.62078 8.04399 6.23809 8.04399 6.70522 8.04399ZM5.5311 8.06914C5.54586 8.07272 5.56126 8.07272 5.57602 8.06914C5.58859 8.06914 5.57602 8.06285 5.55356 8.06285C5.5311 8.06285 5.51852 8.06285 5.5311 8.06914ZM9.55025 8.06914C9.56531 8.07273 9.581 8.07273 9.59606 8.06914C9.60864 8.06914 9.59606 8.06285 9.5736 8.06285C9.55115 8.06285 9.53767 8.06285 9.55025 8.06914ZM20.8396 8.47968C20.8396 8.47968 20.8845 8.52729 20.9402 8.58119L21.0381 8.6827L20.9411 8.58209C20.8513 8.49226 20.8369 8.47519 20.8369 8.48417M11.5841 9.05282C11.623 9.09421 11.6641 9.13349 11.7071 9.1705C11.673 9.12911 11.6364 9.08981 11.5976 9.05282C11.5329 8.98904 11.4781 8.93603 11.4745 8.93603C11.5085 8.97723 11.5451 9.01624 11.5841 9.05282ZM3.50446 9.06989L3.46673 9.11211L3.50895 9.07348C3.54847 9.03755 3.55746 9.02677 3.54668 9.02677C3.53169 9.04022 3.51759 9.05462 3.50446 9.06989ZM21.4828 9.90534C21.4828 9.99517 21.4828 10.0248 21.4873 9.9799C21.49 9.92783 21.49 9.87566 21.4873 9.82359C21.4873 9.78226 21.4828 9.8191 21.4828 9.90534ZM21.0022 11.163L20.9636 11.2052L21.0058 11.1675C21.0209 11.1545 21.035 11.1404 21.048 11.1253C21.048 11.1145 21.0373 11.1253 21.0022 11.163ZM12.5821 11.2115C12.5821 11.2367 12.5821 11.2474 12.5884 11.2349C12.592 11.2198 12.592 11.2041 12.5884 11.1891C12.5884 11.1765 12.5821 11.1891 12.5821 11.2115ZM2.52707 11.2834C2.52707 11.3121 2.52707 11.322 2.53246 11.3058C2.53561 11.2886 2.53561 11.271 2.53246 11.2537C2.53246 11.2412 2.52617 11.2537 2.52707 11.2834ZM20.8531 11.313L20.8082 11.3615L20.8576 11.3166C20.875 11.3018 20.8913 11.2856 20.9061 11.2681C20.9061 11.2582 20.8953 11.2681 20.8531 11.313ZM2.5127 11.9302C2.5127 12.2383 2.5127 12.3623 2.5127 12.206C2.5127 12.0497 2.5127 11.7981 2.5127 11.6463C2.5127 11.4945 2.5127 11.623 2.5127 11.9302ZM12.5911 11.6274V11.7802H10.0713H7.55056V12.0074V11.8969V11.7864H10.0659C12.1321 11.7864 12.5812 11.7864 12.5902 11.7694C12.5942 11.7165 12.5942 11.6633 12.5902 11.6104V11.4675V11.6203M14.4767 11.7829C15.4406 11.7829 17.0181 11.7829 17.9802 11.7829C18.9423 11.7829 18.1599 11.7829 16.2267 11.7829C14.2935 11.7829 13.5101 11.7829 14.474 11.7829M12.5875 12.2159C12.5875 12.3192 12.5875 12.3623 12.5875 12.3057C12.5875 12.2491 12.5875 12.1691 12.5875 12.117C12.5875 12.0649 12.5875 12.1072 12.5875 12.2069M20.9151 12.5581C20.9364 12.5818 20.9598 12.6035 20.9851 12.6228C20.9684 12.5992 20.9491 12.5775 20.9277 12.5581C20.9063 12.5344 20.8829 12.5128 20.8576 12.4934C20.874 12.5173 20.8933 12.539 20.9151 12.5581ZM2.51719 12.5779C2.51719 12.6057 2.51719 12.6165 2.52258 12.6003C2.52573 12.5831 2.52573 12.5655 2.52258 12.5482C2.52258 12.5357 2.51629 12.5482 2.51719 12.5779ZM21.472 13.8912C21.472 13.9811 21.472 14.0107 21.4765 13.9658C21.4792 13.9137 21.4792 13.8616 21.4765 13.8095C21.4765 13.7691 21.472 13.8095 21.472 13.8912ZM11.6973 14.7015L11.6586 14.7438L11.7009 14.706C11.7163 14.6931 11.7305 14.6787 11.7431 14.6629C11.7431 14.653 11.7323 14.6629 11.6973 14.7015ZM3.52242 14.8219C3.60417 14.9046 3.67424 14.971 3.67783 14.971C3.68143 14.971 3.61765 14.9046 3.535 14.8219C3.45235 14.7393 3.38318 14.6719 3.37959 14.6719C3.37599 14.6719 3.44067 14.7393 3.52242 14.8219ZM11.4439 14.9549L11.399 15.0043L11.4484 14.9594C11.4933 14.9171 11.5032 14.9064 11.4933 14.9064C11.4757 14.9213 11.4592 14.9375 11.4439 14.9549ZM5.1556 15.7391C5.17014 15.7453 5.18564 15.7489 5.20141 15.7499C5.21399 15.7499 5.21129 15.7499 5.19512 15.7391C5.18061 15.7327 5.16512 15.7288 5.14931 15.7274C5.13673 15.7274 5.13943 15.7319 5.1556 15.7391ZM19.8146 15.7795C19.8297 15.7831 19.8454 15.7831 19.8604 15.7795C19.873 15.7795 19.8604 15.7742 19.8371 15.7742C19.8137 15.7742 19.802 15.7742 19.8146 15.7795ZM19.6718 15.793C19.6954 15.7957 19.7192 15.7957 19.7427 15.793C19.7625 15.793 19.7428 15.7876 19.7077 15.7876C19.6727 15.7876 19.652 15.7876 19.6718 15.793ZM5.77185 15.8191C5.80654 15.8218 5.84138 15.8218 5.87606 15.8191C5.90211 15.8191 5.87606 15.8191 5.82036 15.8191C5.76467 15.8191 5.74131 15.8191 5.77185 15.8191ZM9.23224 15.8191C9.26902 15.8218 9.30595 15.8218 9.34273 15.8191C9.37328 15.8191 9.34812 15.8191 9.28703 15.8191C9.22595 15.8191 9.1972 15.8191 9.23224 15.8191Z" fill="#8CB4CC"/>
        <path fill-rule="evenodd" clip-rule="evenodd" d="M14.4578 8.00452C15.4037 8.00452 16.9552 8.00452 17.9047 8.00452C18.8542 8.00452 18.0844 8.00452 16.1853 8.00452C14.2862 8.00452 13.5118 8.00452 14.4578 8.00452ZM12.7249 9.86856C12.7249 10.881 12.7249 11.2951 12.7249 10.7885C12.7249 10.2818 12.7249 9.45443 12.7249 8.94777C12.7249 8.44111 12.7249 8.85793 12.7249 9.86856ZM12.5928 11.4164C12.5928 11.4559 12.5928 11.4721 12.5982 11.4523C12.6009 11.4284 12.6009 11.4043 12.5982 11.3805C12.5982 11.3607 12.5928 11.3805 12.5928 11.4164ZM8.4605 12.0246C10.886 12.0335 12.6 12.0335 12.5928 12.0246C12.5857 12.0156 11.4529 12.0165 10.0676 12.0183C8.68239 12.0201 7.95743 12.0228 8.4587 12.0246M14.4578 12.0246C15.4037 12.0246 16.9552 12.0246 17.9047 12.0246C18.8542 12.0246 18.0844 12.0246 16.1853 12.0246C14.2862 12.0246 13.5118 12.0246 14.4578 12.0246ZM12.7249 13.9111C12.7249 14.945 12.7249 15.3682 12.7249 14.8516C12.7249 14.3351 12.7249 13.4888 12.7249 12.9714C12.7249 12.454 12.7249 12.8816 12.7249 13.9111ZM12.5919 12.4612C12.5919 12.4971 12.5919 12.5097 12.5982 12.4899C12.6009 12.4684 12.6009 12.4467 12.5982 12.4252C12.5982 12.4091 12.5919 12.4252 12.5919 12.4612ZM20.9204 15.255L20.8818 15.2972L20.924 15.2586C20.9635 15.2235 20.9725 15.2128 20.9626 15.2128C20.947 15.2252 20.9329 15.2394 20.9204 15.255Z" fill="#83B4CC"/>
        <path fill-rule="evenodd" clip-rule="evenodd" d="M19.6276 8C19.6593 8.00659 19.6915 8.0105 19.7238 8.01168C19.7795 8.01168 19.8001 8.01168 19.7759 8.01168C19.7273 8.00038 19.6771 7.99764 19.6276 8.00359M6.71049 8.03414C7.17314 8.03414 7.93492 8.03414 8.40206 8.03414C8.86919 8.03414 8.49189 8.03414 7.56032 8.03414C6.62874 8.03414 6.24785 8.03414 6.71049 8.03414ZM19.8513 8.03414C19.8661 8.03772 19.8815 8.03772 19.8962 8.03414C19.9088 8.03414 19.8962 8.02875 19.8738 8.02875C19.8513 8.02875 19.8388 8.02875 19.8513 8.03414ZM5.74748 8.04761C5.76466 8.05122 5.7824 8.05122 5.79958 8.04761C5.81216 8.04761 5.79958 8.04132 5.76994 8.04222C5.74029 8.04312 5.73131 8.04222 5.74748 8.04761ZM9.32465 8.04761C9.34395 8.0512 9.36374 8.0512 9.38304 8.04761C9.39921 8.04761 9.38304 8.04222 9.35339 8.04222C9.32375 8.04222 9.30848 8.04222 9.32465 8.04761ZM20.0795 8.07726C20.094 8.08367 20.1095 8.08761 20.1253 8.08893C20.1379 8.08893 20.1352 8.08444 20.119 8.07726C20.1043 8.07152 20.0889 8.06789 20.0732 8.06648C20.0606 8.06648 20.0633 8.06648 20.0795 8.07726ZM10.0891 8.16709C10.1034 8.17324 10.1186 8.17689 10.134 8.17787C10.1466 8.17787 10.1439 8.17787 10.1278 8.16709C10.1132 8.16068 10.0978 8.15673 10.0819 8.15541C10.0703 8.15541 10.0721 8.15541 10.0891 8.16709ZM10.603 8.35574C10.6168 8.36419 10.632 8.37027 10.6479 8.37371C10.6551 8.37371 10.6479 8.36562 10.629 8.35574C10.6151 8.34667 10.5995 8.34028 10.5832 8.33688C10.576 8.33688 10.5832 8.34496 10.603 8.35574ZM20.9338 8.56326C20.9617 8.59524 20.9917 8.62526 21.0237 8.65309C21.0009 8.62066 20.9751 8.59057 20.9464 8.56326C20.9183 8.53324 20.8883 8.50503 20.8566 8.47881C20.8797 8.50922 20.9056 8.53748 20.9338 8.56326ZM11.5867 9.04207C11.6236 9.08096 11.6626 9.11784 11.7034 9.15256C11.6712 9.11371 11.6367 9.07681 11.6001 9.04207C11.539 8.98188 11.4869 8.93157 11.4833 8.93157C11.5153 8.97067 11.5498 9.00758 11.5867 9.04207ZM3.50164 9.05195L3.46391 9.09417L3.50613 9.05644C3.52124 9.04344 3.53535 9.02933 3.54836 9.01422C3.54836 9.00344 3.53758 9.01422 3.50164 9.05195ZM3.37498 9.1885L3.33006 9.23701L3.37857 9.19299C3.42439 9.15077 3.43337 9.13999 3.42349 9.13999C3.40603 9.15482 3.38981 9.17104 3.37498 9.1885ZM21.4207 9.41308C21.422 9.42889 21.426 9.44438 21.4324 9.45889C21.4396 9.47506 21.4432 9.47776 21.4432 9.46518C21.4422 9.44941 21.4386 9.43392 21.4324 9.41937C21.4252 9.4032 21.4207 9.4005 21.4207 9.41308ZM21.4746 9.68258C21.4746 9.71133 21.4746 9.72121 21.48 9.70504C21.4836 9.68786 21.4836 9.67012 21.48 9.65294C21.48 9.64036 21.4746 9.65294 21.4746 9.68258ZM21.489 9.90357C21.489 9.97544 21.489 10.0024 21.4935 9.96466C21.4962 9.92128 21.4962 9.87778 21.4935 9.8344C21.4935 9.80116 21.489 9.8344 21.489 9.90357ZM21.4773 10.1201C21.4773 10.1488 21.4773 10.1587 21.4827 10.1425C21.4863 10.1253 21.4863 10.1076 21.4827 10.0904C21.4827 10.0787 21.4773 10.0904 21.4773 10.1201ZM2.52246 11.1675C2.52246 11.1927 2.52246 11.2026 2.52875 11.19C2.53144 11.1751 2.53144 11.1599 2.52875 11.1451C2.52875 11.1325 2.52246 11.1451 2.52246 11.1675ZM20.9922 11.1774L20.9473 11.2259L20.9958 11.181C21.0133 11.1662 21.0295 11.1499 21.0443 11.1325C21.0443 11.1226 21.0335 11.1325 20.9922 11.1774ZM12.5928 11.2672C12.5928 11.3167 12.5928 11.3355 12.5982 11.3086C12.6008 11.2787 12.6008 11.2486 12.5982 11.2187C12.5982 11.1954 12.5928 11.2187 12.5928 11.2681M2.50988 11.2807C2.50988 11.3167 2.50988 11.3292 2.51617 11.3095C2.51887 11.288 2.51887 11.2663 2.51617 11.2448C2.51617 11.2286 2.50988 11.2448 2.50988 11.2807ZM20.8629 11.3068C20.8431 11.3237 20.8259 11.3434 20.8116 11.3652C20.8348 11.3479 20.8562 11.3283 20.8754 11.3068C20.8948 11.2895 20.912 11.2699 20.9266 11.2484C20.9035 11.2656 20.8821 11.2852 20.8629 11.3068ZM2.5 11.9356C2.5 12.2509 2.5 12.3776 2.5 12.2177C2.5 12.0578 2.5 11.8009 2.5 11.6454C2.5 11.49 2.5 11.6212 2.5 11.9356ZM10.0712 11.7991L7.54774 11.8053H10.0676C11.7367 11.8053 12.5901 11.8053 12.5955 11.7955C12.6009 11.7856 12.6018 11.7838 12.5955 11.7856C12.5892 11.7874 11.4555 11.7919 10.0676 11.7955M12.7266 11.7955C12.732 11.8009 14.2897 11.8035 16.1888 11.8018H19.6429L16.1798 11.7955C14.2745 11.7955 12.7212 11.7955 12.7266 11.7955ZM19.7822 11.7883C19.7973 11.791 19.8128 11.791 19.828 11.7883C19.8405 11.7883 19.828 11.782 19.8055 11.782C19.7831 11.782 19.7696 11.782 19.7822 11.7883ZM19.6582 12.0227C19.6881 12.0253 19.7181 12.0253 19.748 12.0227C19.775 12.0227 19.7561 12.0174 19.7058 12.0174C19.6555 12.0174 19.6339 12.0174 19.6564 12.0227M20.9212 12.5617C20.9751 12.6192 20.9868 12.6291 20.9868 12.6201C20.9679 12.5981 20.9475 12.5774 20.9257 12.5581L20.8638 12.4998L20.9212 12.5617ZM12.5874 12.604C12.5874 12.6543 12.5874 12.6731 12.5928 12.6462C12.5954 12.6163 12.5954 12.5862 12.5928 12.5564C12.5928 12.5339 12.5874 12.5564 12.5874 12.6058M2.50449 12.586C2.50449 12.6183 2.50449 12.6318 2.51078 12.6156C2.51347 12.5963 2.51347 12.5766 2.51078 12.5573C2.51078 12.5411 2.50449 12.5573 2.50449 12.586ZM12.494 13.1996C12.4923 13.2151 12.4893 13.2304 12.485 13.2454C12.4778 13.2678 12.4778 13.2678 12.4922 13.2454C12.5002 13.2316 12.5034 13.2154 12.5012 13.1996C12.4958 13.1798 12.4949 13.1798 12.494 13.1996ZM21.418 13.4188C21.4193 13.4346 21.4233 13.4501 21.4297 13.4646C21.4369 13.4807 21.4405 13.4834 21.4405 13.4709C21.4395 13.4551 21.4359 13.4396 21.4297 13.425C21.4225 13.4089 21.418 13.4071 21.418 13.4188ZM2.73267 13.6299C2.73723 13.6451 2.74454 13.6594 2.75423 13.6721C2.76052 13.6793 2.75423 13.6658 2.75423 13.6433C2.73806 13.5957 2.72279 13.5849 2.73626 13.6299M21.4782 13.6918C21.4782 13.717 21.4782 13.7278 21.4845 13.7152C21.4881 13.7001 21.4881 13.6844 21.4845 13.6694C21.4845 13.6568 21.4782 13.6694 21.4782 13.6918ZM21.4935 13.9065C21.4935 13.9784 21.4935 14.0063 21.498 13.9685C21.5007 13.9252 21.5007 13.8817 21.498 13.8383C21.498 13.8041 21.4935 13.8383 21.4935 13.9065ZM21.4791 14.1275C21.4791 14.1563 21.4791 14.1671 21.4845 14.1509C21.4881 14.1337 21.4881 14.116 21.4845 14.0988C21.4845 14.0862 21.4791 14.0988 21.4791 14.1275ZM11.6971 14.7106L11.645 14.7663L11.7007 14.715C11.7206 14.6978 11.7392 14.6792 11.7564 14.6594C11.7564 14.6495 11.7448 14.6594 11.6971 14.7106ZM3.51512 14.8246C3.58609 14.8965 3.64717 14.9549 3.65077 14.9549C3.65436 14.9549 3.59866 14.8965 3.52769 14.8246C3.45673 14.7528 3.39564 14.6944 3.39205 14.6944C3.4303 14.7403 3.4714 14.7839 3.51512 14.8246ZM11.4699 14.9351C11.4505 14.9524 11.4333 14.9721 11.4187 14.9935C11.4418 14.9763 11.4632 14.9567 11.4824 14.9351C11.5022 14.9182 11.5194 14.8985 11.5337 14.8767C11.5105 14.894 11.4891 14.9136 11.4699 14.9351ZM3.67772 14.9711C3.69045 14.9864 3.70459 15.0006 3.71994 15.0133L3.76216 15.0519L3.72353 15.0097C3.6885 14.9702 3.67772 14.9612 3.67772 14.9711ZM21.0246 15.1507L20.9859 15.193L21.0281 15.1543C21.0677 15.1193 21.0767 15.1085 21.0668 15.1085C21.0512 15.121 21.037 15.1351 21.0246 15.1507ZM20.8449 15.3304L20.8063 15.3726L20.8485 15.334C20.888 15.2981 20.897 15.2882 20.8871 15.2882C20.8715 15.3007 20.8574 15.3148 20.8449 15.3304ZM9.77471 15.7688C9.73968 15.7778 9.73878 15.7787 9.76842 15.7796C9.78836 15.7794 9.80812 15.7757 9.82682 15.7688C9.85916 15.7553 9.82681 15.7553 9.77471 15.7688ZM12.7329 15.7984C12.7383 15.8038 14.2906 15.8065 16.1825 15.8047H19.6232L16.1727 15.7975C14.2754 15.7975 12.7275 15.7975 12.7329 15.7975M5.61542 15.8164C5.63479 15.8191 5.65444 15.8191 5.67382 15.8164C5.68999 15.8164 5.67382 15.811 5.64417 15.811C5.61453 15.811 5.59925 15.811 5.61542 15.8164ZM9.45311 15.8164C9.47248 15.8191 9.49213 15.8191 9.5115 15.8164C9.52767 15.8164 9.5115 15.811 9.48185 15.811C9.45221 15.811 9.43694 15.811 9.45311 15.8164ZM6.64941 15.8299C7.14888 15.8299 7.96547 15.8299 8.46404 15.8299C8.96262 15.8299 8.55388 15.8299 7.55672 15.8299C6.55957 15.8299 6.14993 15.8299 6.64941 15.8299Z" fill="#65A3BD"/>
    </g>
    <defs>
        <linearGradient id="paint0_linear_4103_769" x1="22.5" y1="4" x2="-1.11262e-06" y2="20" gradientUnits="userSpaceOnUse">
            <stop stop-color="#0A2859"/>
            <stop offset="0.241555" stop-color="#195C91"/>
            <stop offset="0.471154" stop-color="#0F7C9D"/>
            <stop offset="0.735241" stop-color="#1F9C93"/>
            <stop offset="1" stop-color="#229A4C"/>
        </linearGradient>
        <clipPath id="clip0_4103_769">
            <rect width="24" height="16" fill="white" transform="translate(0 4)"/>
        </clipPath>
    </defs>
</svg>
