<svg width="128" height="128" viewBox="0 0 128 128" fill="none" xmlns="http://www.w3.org/2000/svg">
<rect x="10.1895" y="26.2219" width="43.6062" height="77.8687" fill="#FFE700"/>
<path d="M42.5345 128C41.7058 127.786 40.877 127.644 40.0483 127.359C33.0038 125.365 28.2384 118.956 28.1003 111.194C28.1003 110.625 28.1003 110.126 28.1003 109.414C27.5478 109.414 27.1334 109.414 26.719 109.414C22.5062 109.414 18.2242 109.414 14.0114 109.414C9.10785 109.414 6 106.21 6 101.154C6 76.9424 6 52.8022 6 28.5908C6 23.3925 9.03879 20.3305 14.0804 20.2592C18.2933 20.2592 22.5062 20.2592 26.65 20.2592C27.0643 20.2592 27.5478 20.2592 28.1694 20.2592C28.1694 18.479 28.1003 16.9124 28.1694 15.2745C28.7909 7.0854 35.6282 0.106815 43.6396 0.106815C58.8335 -0.035605 74.0965 -0.035605 89.2905 0.106815C97.9925 0.178025 104.83 7.7975 104.899 17.1972C104.899 24.8879 104.899 32.5074 104.899 40.1981C104.899 40.6965 104.899 41.195 104.899 41.8359C106.487 41.8359 107.938 41.8359 109.388 41.8359C111.943 41.8359 113.463 43.2601 113.532 45.8236C113.601 47.6751 114.222 49.1705 115.604 50.4523C119.747 54.2264 121.267 59.0687 121.198 64.6231C121.198 67.6851 121.198 70.8184 121.198 73.8804C121.198 76.8 119.609 78.3666 116.847 78.3666C115.949 78.3666 114.982 78.3666 113.946 78.3666C113.946 78.8651 113.946 79.2924 113.946 79.7196C113.946 83.2089 113.946 86.6982 113.946 90.1875C113.946 91.9677 112.772 93.3919 111.184 93.8192C109.595 94.2465 107.799 93.6768 106.971 92.1814C106.487 91.3268 106.28 90.3299 106.28 89.333C106.211 85.7013 106.28 82.0695 106.28 78.3666H96.1968C96.1968 79.6484 96.1968 80.9302 96.1968 82.212C96.1968 84.6331 96.1968 87.1255 96.1968 89.5466C96.1968 92.1102 94.5393 93.8904 92.3293 93.8904C90.1192 93.8904 88.4617 92.1102 88.4617 89.5466C88.4617 86.2709 88.4617 82.9953 88.4617 79.6484C88.4617 79.2211 88.4617 78.7227 88.4617 78.153C87.2186 78.153 86.1135 78.153 84.9395 78.153C83.0057 78.153 81.21 76.7288 81.21 74.8061C81.21 69.5366 81.21 64.267 81.6244 58.9975C81.8316 55.8643 83.6273 53.2295 85.9064 51.0932C87.6329 49.4554 88.807 47.6039 88.807 45.0403C88.807 43.1889 90.5336 41.7647 92.3983 41.6935C93.9868 41.6935 95.5752 41.6935 97.0946 41.6223C97.0946 41.6223 97.0946 41.6223 97.3709 41.4798C97.3709 41.1238 97.3709 40.6965 97.3709 40.2693C97.3709 32.721 97.3709 25.1727 97.3709 17.6957C97.3709 11.714 93.8486 8.08234 87.9783 8.08234C73.7512 8.08234 59.5241 8.08234 45.3661 8.08234C39.5648 8.08234 36.0426 11.714 36.0426 17.6957C36.0426 18.5502 36.0426 19.3335 36.0426 20.2592C36.5951 20.2592 37.0785 20.2592 37.4929 20.2592C41.8439 20.2592 46.1949 20.2592 50.5459 20.2592C54.7588 20.2592 57.7976 23.2501 58.0738 27.5939C58.0738 27.9499 58.0738 28.3772 58.0738 28.7332C58.0738 52.8734 58.0738 76.9424 58.0738 101.083C58.0738 105.213 56.2091 108.132 52.825 109.129C51.9272 109.414 51.0293 109.485 50.0625 109.485C45.8496 109.485 41.6367 109.485 37.4929 109.485H36.1807C34.8685 114.399 38.9432 119.811 44.123 120.024C45.7805 120.024 47.438 120.024 49.0956 120.024C62.2176 120.024 75.3397 120.024 88.4617 120.024C91.2242 120.024 93.0199 122.161 92.6055 124.796C92.3293 126.505 91.1552 127.359 89.7048 128H42.5345ZM50.1315 101.367V28.306H13.8042V101.367H50.1315V101.367ZM113.463 70.2487C113.463 67.6851 113.463 65.264 113.463 62.8428C113.463 60.2793 112.427 58.2142 110.631 56.4339C108.835 54.7249 107.316 52.8022 106.556 50.3099C106.487 50.0962 106.073 49.8114 105.797 49.7402C102.689 49.7402 99.5809 49.7402 96.4731 49.7402C96.1968 49.7402 95.7134 50.025 95.6443 50.2387C94.8155 52.9446 93.0199 54.8673 91.2242 56.8612C90.3955 57.7869 89.5667 58.9263 89.2214 60.0656C88.2545 63.4125 88.807 66.8306 88.6689 70.2487H113.463V70.2487Z" fill="#121212"/>
<path d="M31.4587 59.9545C34.3708 59.9545 36.8894 59.9545 39.4081 59.9545C41.3757 59.9545 42.9499 60.5066 43.8944 62.0939C44.8389 63.6813 44.3666 65.1306 43.2647 66.5109C39.2507 71.411 35.3153 76.3801 31.3012 81.3492C30.0419 82.8676 28.3104 83.4887 26.5001 83.0746C24.6111 82.6605 23.2731 81.4873 23.1944 79.7619C23.1944 78.7957 23.5092 77.6914 24.1389 76.8632C26.1853 74.1026 28.3891 71.48 30.5142 68.8575C30.7503 68.5124 30.9864 68.2363 31.5374 67.5462C29.4123 67.5462 27.602 67.5462 25.7917 67.5462C25.0047 67.5462 24.2176 67.5462 23.4305 67.5462C21.6203 67.5462 20.2035 66.856 19.3378 65.4757C18.472 64.0264 18.7081 62.6461 19.6526 61.3348C22.8796 57.1248 26.0279 52.9839 29.2549 48.774C29.8058 48.0148 30.4355 47.1866 31.0651 46.4965C32.5606 44.7021 35.1579 44.288 37.1256 45.4612C39.0932 46.6345 39.7229 48.981 38.3062 50.7754C36.3385 53.467 34.2921 56.0896 32.2457 58.7122C32.0096 59.0573 31.7735 59.4023 31.3012 60.0235L31.4587 59.9545Z" fill="#121212"/>
</svg>
