<svg width="128" height="128" viewBox="0 0 128 128" fill="none" xmlns="http://www.w3.org/2000/svg">
<path d="M32.5 20.5C35.3333 15.5 41.1 5 41.5 3H86.5L98 25.5L101.5 57H26.5V43L32.5 20.5Z" fill="#FFE700" stroke="black"/>
<path d="M86.5 0H41.5C40.5055 0 39.5517 0.39525 38.8485 1.0985C22.933 17.0137 22.75 55.135 22.75 56.75C22.75 58.821 24.429 60.5 26.5 60.5H52.75V70.5362C43.8892 74.7567 37.75 83.7995 37.75 94.25C37.75 99.614 39.787 104.629 42.7943 108.137C42.7995 108.144 42.8048 108.15 42.81 108.157C47.4555 113.939 44.9095 118.565 42.5905 121.542C42.3492 121.851 42.1587 122.096 41.9805 122.414C41.3285 123.575 41.341 124.995 42.0137 126.144C42.6865 127.294 43.9182 128 45.25 128H82.75C84.0818 128 85.3135 127.294 85.9863 126.144C86.659 124.995 86.6718 123.575 86.0195 122.414C85.8413 122.096 85.6505 121.851 85.4095 121.542C81.9083 117.048 81.4577 112.767 85.212 108.13C88.555 103.996 90.25 99.3265 90.25 94.25C90.25 83.7995 84.1108 74.7567 75.25 70.5362V60.5H82.75V64.25C82.75 66.321 84.429 68 86.5 68C88.571 68 90.25 66.321 90.25 64.25V60.5H101.5C103.571 60.5 105.25 58.821 105.25 56.75C105.25 55.135 105.067 17.0137 89.1515 1.0985C88.4482 0.39525 87.4945 0 86.5 0ZM79.3307 103.476C76.6512 106.817 73.2843 112.955 76.2083 120.5H51.7918C54.1678 114.369 52.6245 108.337 48.6125 103.405C47.2482 101.716 46.2972 99.9072 45.7627 97.9975H82.2375C81.6403 100.13 80.6635 101.786 79.3307 103.476ZM82.3727 90.5H45.6273C47.3693 81.952 54.9452 75.5 64 75.5C73.0548 75.5 80.6305 81.952 82.3727 90.5ZM60.25 68.269V60.5H67.75V68.269C66.5247 68.093 65.2732 68 64 68C62.7268 68 61.4753 68.093 60.25 68.269ZM30.362 53C30.7955 43.6302 32.9018 19.1292 43.123 7.5H84.8767C95.0802 19.1147 97.1978 43.628 97.636 53H30.362Z" fill="black"/>
</svg>
