<svg width="128" height="128" viewBox="0 0 128 128" fill="none" xmlns="http://www.w3.org/2000/svg">
<g clip-path="url(#clip0_5274_38068)">
<rect x="6" y="5" width="56" height="117" rx="6" fill="#FFE700"/>
<path d="M114.875 0H73.375C69.7053 0 66.3842 1.51575 64 3.952C61.6158 1.51575 58.2947 0 54.625 0H13.125C5.88775 0 0 5.888 0 13.125V114.875C0 122.112 5.88775 128 13.125 128H54.625C58.2947 128 61.6158 126.484 64 124.048C66.3842 126.484 69.7053 128 73.375 128H114.875C122.112 128 128 122.112 128 114.875V13.125C128 5.888 122.112 0 114.875 0ZM54.625 120.5H13.125C10.0233 120.5 7.5 117.977 7.5 114.875V13.125C7.5 10.0235 10.0233 7.5 13.125 7.5H54.625C57.7267 7.5 60.25 10.0235 60.25 13.125V114.875C60.25 117.977 57.7267 120.5 54.625 120.5ZM120.5 114.875C120.5 117.977 117.977 120.5 114.875 120.5H73.375C70.2733 120.5 67.75 117.977 67.75 114.875V13.125C67.75 10.0235 70.2733 7.5 73.375 7.5H114.875C117.977 7.5 120.5 10.0235 120.5 13.125V114.875Z" fill="black"/>
<path d="M48.9375 22.5938H18.8125C16.7415 22.5938 15.0625 24.2727 15.0625 26.3438C15.0625 28.4148 16.7415 30.0938 18.8125 30.0938H48.9375C51.0085 30.0938 52.6875 28.4148 52.6875 26.3438C52.6875 24.2727 51.0085 22.5938 48.9375 22.5938Z" fill="black"/>
<path d="M48.9375 37.6562H18.8125C16.7415 37.6562 15.0625 39.3352 15.0625 41.4062C15.0625 43.4773 16.7415 45.1562 18.8125 45.1562H48.9375C51.0085 45.1562 52.6875 43.4773 52.6875 41.4062C52.6875 39.3352 51.0085 37.6562 48.9375 37.6562Z" fill="black"/>
<path d="M48.9375 52.7188H18.8125C16.7415 52.7188 15.0625 54.3977 15.0625 56.4688C15.0625 58.5398 16.7415 60.2188 18.8125 60.2188H48.9375C51.0085 60.2188 52.6875 58.5398 52.6875 56.4688C52.6875 54.3977 51.0085 52.7188 48.9375 52.7188Z" fill="black"/>
<path d="M109.188 22.5938H79.0625C76.9915 22.5938 75.3125 24.2727 75.3125 26.3438C75.3125 28.4148 76.9915 30.0938 79.0625 30.0938H109.188C111.259 30.0938 112.938 28.4148 112.938 26.3438C112.938 24.2727 111.259 22.5938 109.188 22.5938Z" fill="black"/>
<path d="M109.188 37.6562H79.0625C76.9915 37.6562 75.3125 39.3352 75.3125 41.4062C75.3125 43.4773 76.9915 45.1562 79.0625 45.1562H109.188C111.259 45.1562 112.938 43.4773 112.938 41.4062C112.938 39.3352 111.259 37.6562 109.188 37.6562Z" fill="black"/>
<path d="M109.188 52.7188H79.0625C76.9915 52.7188 75.3125 54.3977 75.3125 56.4688C75.3125 58.5398 76.9915 60.2188 79.0625 60.2188H109.188C111.259 60.2188 112.938 58.5398 112.938 56.4688C112.938 54.3977 111.259 52.7188 109.188 52.7188Z" fill="black"/>
<path d="M48.9375 75.3125C46.8665 75.3125 45.1875 76.9915 45.1875 79.0625V94.125C45.1875 96.196 46.8665 97.875 48.9375 97.875C51.0085 97.875 52.6875 96.196 52.6875 94.125V79.0625C52.6875 76.9915 51.0085 75.3125 48.9375 75.3125Z" fill="black"/>
<path d="M109.188 75.3125C107.116 75.3125 105.438 76.9915 105.438 79.0625V94.125C105.438 96.196 107.116 97.875 109.188 97.875C111.259 97.875 112.938 96.196 112.938 94.125V79.0625C112.938 76.9915 111.259 75.3125 109.188 75.3125Z" fill="black"/>
</g>
<defs>
<clipPath id="clip0_5274_38068">
<rect width="128" height="128" fill="white"/>
</clipPath>
</defs>
</svg>
