<svg width="24" height="24" viewBox="0 0 24 24" fill="none" xmlns="http://www.w3.org/2000/svg">
<path d="M7.26094 21.2307V19.9946C7.26815 19.8909 7.25317 19.7868 7.21701 19.6894C7.18084 19.5919 7.12433 19.5033 7.05123 19.4294C6.97812 19.3556 6.89011 19.2981 6.79306 19.2609C6.696 19.2237 6.59213 19.2076 6.48837 19.2137C6.35221 19.2048 6.21614 19.2326 6.09438 19.2942C5.97261 19.3558 5.86963 19.449 5.79616 19.564C5.72919 19.4524 5.63336 19.361 5.51878 19.2994C5.4042 19.2377 5.27512 19.2082 5.14514 19.2137C5.03183 19.208 4.91899 19.232 4.81781 19.2833C4.71663 19.3346 4.63061 19.4115 4.56829 19.5063V19.2632H4.13977V21.2307H4.57241V20.1408C4.56282 20.0734 4.56834 20.0047 4.58857 19.9397C4.60879 19.8747 4.64323 19.815 4.68936 19.7649C4.7355 19.7148 4.7922 19.6756 4.85534 19.6501C4.91849 19.6246 4.98652 19.6135 5.05449 19.6175C5.3388 19.6175 5.48301 19.803 5.48301 20.1367V21.2307H5.91564V20.1408C5.90682 20.0735 5.91287 20.0051 5.93338 19.9405C5.95389 19.8758 5.98835 19.8164 6.03433 19.7665C6.08031 19.7166 6.13669 19.6774 6.19948 19.6516C6.26227 19.6259 6.32994 19.6143 6.39773 19.6175C6.69027 19.6175 6.83036 19.803 6.83036 20.1367V21.2307H7.26094ZM9.67135 20.248V19.2653H9.23871V19.5042C9.16606 19.4105 9.07208 19.3354 8.96459 19.2852C8.8571 19.2351 8.73919 19.2113 8.62066 19.2158C8.34746 19.2158 8.08545 19.3243 7.89227 19.5175C7.69909 19.7107 7.59057 19.9727 7.59057 20.2459C7.59057 20.5191 7.69909 20.7811 7.89227 20.9743C8.08545 21.1675 8.34746 21.276 8.62066 21.276C8.73919 21.2805 8.8571 21.2567 8.96459 21.2066C9.07208 21.1564 9.16606 21.0813 9.23871 20.9876V21.2265H9.66723L9.67135 20.248ZM8.07883 20.248C8.08567 20.132 8.12625 20.0206 8.1956 19.9275C8.26494 19.8343 8.36002 19.7635 8.46912 19.7237C8.57822 19.6839 8.69658 19.6768 8.80962 19.7034C8.92266 19.73 9.02546 19.7891 9.10534 19.8734C9.18523 19.9577 9.23872 20.0635 9.25923 20.1778C9.27974 20.2922 9.26637 20.41 9.22076 20.5168C9.17516 20.6236 9.09932 20.7147 9.00258 20.779C8.90584 20.8432 8.79242 20.8778 8.67628 20.8784C8.59428 20.8803 8.51278 20.8651 8.437 20.8337C8.36122 20.8023 8.29282 20.7554 8.23619 20.6961C8.17957 20.6368 8.13596 20.5662 8.10815 20.4891C8.08034 20.4119 8.06896 20.3298 8.07471 20.248H8.07883ZM18.8268 19.2179C18.9679 19.2175 19.1077 19.2441 19.2388 19.2962C19.364 19.3463 19.4781 19.4205 19.5746 19.5145C19.6699 19.6078 19.7456 19.7191 19.7971 19.8421C19.9048 20.1062 19.9048 20.402 19.7971 20.6662C19.7457 20.7892 19.67 20.9006 19.5746 20.9937C19.4781 21.0878 19.364 21.162 19.2388 21.2121C18.9672 21.3177 18.6658 21.3177 18.3942 21.2121C18.2696 21.1621 18.1562 21.0878 18.0604 20.9937C17.966 20.9002 17.8911 20.7889 17.84 20.6662C17.7325 20.402 17.7325 20.1063 17.84 19.8421C17.8911 19.7194 17.966 19.6081 18.0604 19.5145C18.1562 19.4204 18.2696 19.3462 18.3942 19.2962C18.53 19.2399 18.6756 19.2111 18.8227 19.2117L18.8268 19.2179ZM18.8268 19.6299C18.7429 19.6288 18.6596 19.6442 18.5816 19.6752C18.5082 19.7047 18.4416 19.7488 18.3859 19.805C18.3291 19.8642 18.2849 19.9343 18.2561 20.011C18.1932 20.1755 18.1932 20.3575 18.2561 20.522C18.2849 20.5988 18.3291 20.6689 18.3859 20.728C18.4416 20.7842 18.5082 20.8284 18.5816 20.8578C18.7386 20.9192 18.9129 20.9192 19.0699 20.8578C19.1469 20.8293 19.217 20.7851 19.2759 20.728C19.3329 20.6689 19.377 20.5988 19.4057 20.522C19.4686 20.3575 19.4686 20.1755 19.4057 20.011C19.377 19.9342 19.3329 19.8641 19.2759 19.805C19.217 19.7479 19.1469 19.7037 19.0699 19.6752C18.9922 19.6396 18.9081 19.62 18.8227 19.6175L18.8268 19.6299ZM11.9994 20.248C11.9994 19.6299 11.6162 19.2179 11.0661 19.2179C10.7929 19.2217 10.5324 19.3339 10.3419 19.5298C10.1515 19.7257 10.0466 19.9892 10.0504 20.2624C10.0543 20.5356 10.1664 20.7961 10.3623 20.9865C10.5582 21.177 10.8217 21.2819 11.0949 21.278C11.3882 21.2881 11.675 21.1898 11.9005 21.002L11.6944 20.6847C11.5318 20.8152 11.3302 20.8877 11.1217 20.8907C10.9801 20.9029 10.8393 20.8594 10.7292 20.7693C10.6192 20.6793 10.5486 20.5499 10.5325 20.4087H11.9932C11.9994 20.3571 11.9994 20.3056 11.9994 20.248ZM10.5346 20.0749C10.5425 19.9441 10.6008 19.8215 10.6972 19.7328C10.7936 19.644 10.9207 19.5961 11.0517 19.599C11.1158 19.5976 11.1796 19.6089 11.2393 19.6322C11.2991 19.6555 11.3537 19.6903 11.4 19.7347C11.4463 19.7791 11.4834 19.8321 11.5092 19.8909C11.5349 19.9496 11.5489 20.0128 11.5502 20.077L10.5346 20.0749ZM13.802 19.7659C13.6139 19.6575 13.401 19.5994 13.184 19.5969C12.9491 19.5969 12.809 19.6835 12.809 19.8277C12.809 19.9719 12.9573 19.9966 13.1427 20.0213L13.3488 20.0502C13.7773 20.112 14.0369 20.2933 14.0369 20.6394C14.0369 20.9855 13.7072 21.2822 13.1407 21.2822C12.837 21.2902 12.5388 21.2007 12.2898 21.0267L12.4959 20.693C12.6849 20.8332 12.9157 20.9058 13.151 20.899C13.4435 20.899 13.6001 20.8124 13.6001 20.66C13.6001 20.5487 13.4889 20.4869 13.254 20.454L13.048 20.4251C12.6071 20.3633 12.3681 20.1656 12.3681 19.8442C12.3681 19.4527 12.6895 19.2137 13.1922 19.2137C13.4735 19.2043 13.7517 19.2758 13.9936 19.4198L13.802 19.7659ZM15.8622 19.6546H15.1638V20.5426C15.1638 20.7486 15.2338 20.8722 15.4481 20.8722C15.5818 20.8678 15.7122 20.8295 15.8272 20.7609L15.9508 21.1277C15.7901 21.2279 15.6045 21.2807 15.4151 21.2801C14.9083 21.2801 14.7312 21.0082 14.7312 20.5508V19.6546H14.3315V19.2632H14.7312V18.6657H15.1638V19.2632H15.8622V19.6546ZM17.3435 19.2137C17.4474 19.2142 17.5505 19.2323 17.6484 19.2673L17.5165 19.6794C17.4314 19.6454 17.3404 19.6286 17.2487 19.6299C16.9685 19.6299 16.8367 19.8112 16.8367 20.1367V21.2389H16.4081V19.2714H16.8325V19.5104C16.8851 19.4201 16.9611 19.3456 17.0525 19.2948C17.1438 19.2441 17.2472 19.2189 17.3517 19.222L17.3435 19.2137ZM20.306 20.9443C20.3328 20.944 20.3594 20.9489 20.3843 20.9587C20.4079 20.9684 20.4296 20.9823 20.4482 20.9999C20.4663 21.0177 20.4809 21.0386 20.4914 21.0617C20.5018 21.0858 20.5072 21.1117 20.5072 21.138C20.5072 21.1642 20.5018 21.1901 20.4914 21.2142C20.4809 21.2373 20.4663 21.2582 20.4482 21.276C20.4296 21.2936 20.4079 21.3075 20.3843 21.3172C20.3596 21.3281 20.333 21.3337 20.306 21.3337C20.2669 21.3334 20.2288 21.322 20.1959 21.3008C20.1631 21.2797 20.137 21.2496 20.1206 21.2142C20.1103 21.1901 20.1049 21.1642 20.1049 21.138C20.1049 21.1118 20.1103 21.0858 20.1206 21.0617C20.1311 21.0386 20.1457 21.0177 20.1638 20.9999C20.1824 20.9823 20.2041 20.9684 20.2277 20.9587C20.2494 20.9501 20.2724 20.9452 20.2957 20.9443H20.306ZM20.306 21.2925C20.3266 21.2926 20.3469 21.2884 20.3657 21.2801C20.3835 21.2722 20.3995 21.261 20.4131 21.2471C20.4306 21.2295 20.4435 21.208 20.4508 21.1842C20.458 21.1605 20.4593 21.1354 20.4547 21.111C20.45 21.0867 20.4395 21.0638 20.424 21.0445C20.4085 21.0251 20.3885 21.0098 20.3657 20.9999C20.3469 20.9917 20.3266 20.9875 20.306 20.9876C20.2855 20.9877 20.2651 20.9919 20.2463 20.9999C20.2277 21.0075 20.2109 21.0187 20.1968 21.0329C20.171 21.061 20.1567 21.0978 20.1567 21.1359C20.1567 21.174 20.171 21.2108 20.1968 21.2389C20.2111 21.2533 20.2281 21.2648 20.2468 21.2726C20.2656 21.2804 20.2857 21.2843 20.306 21.2842V21.2925ZM20.3184 21.0473C20.3376 21.0464 20.3565 21.0522 20.3719 21.0638C20.3782 21.069 20.3832 21.0757 20.3864 21.0832C20.3896 21.0907 20.391 21.0989 20.3905 21.1071C20.3908 21.1139 20.3896 21.1207 20.3871 21.1271C20.3847 21.1335 20.3809 21.1393 20.376 21.1441C20.3641 21.155 20.3489 21.1615 20.3328 21.1627L20.3925 21.2307H20.3451L20.2895 21.1627H20.271V21.2307H20.2318V21.0411L20.3184 21.0473ZM20.273 21.0823V21.1318H20.3184C20.3264 21.1342 20.335 21.1342 20.3431 21.1318C20.3445 21.1289 20.3453 21.1257 20.3453 21.1225C20.3453 21.1193 20.3445 21.1161 20.3431 21.1132C20.3445 21.1104 20.3453 21.1072 20.3453 21.104C20.3453 21.1007 20.3445 21.0976 20.3431 21.0947C20.335 21.0923 20.3264 21.0923 20.3184 21.0947L20.273 21.0823Z" fill="black"/>
<path d="M15.2442 4.25235H8.75464V15.915H15.2442V4.25235Z" fill="#7673C0"/>
<path d="M9.16671 10.0846C9.16551 8.96128 9.41994 7.85238 9.91072 6.8419C10.4015 5.83142 11.1158 4.94586 11.9995 4.25227C10.9053 3.3924 9.59134 2.8577 8.20769 2.70927C6.82404 2.56085 5.42655 2.80469 4.17492 3.41294C2.9233 4.02118 1.86806 4.96929 1.12979 6.1489C0.391514 7.32851 0 8.69202 0 10.0836C0 11.4752 0.391514 12.8387 1.12979 14.0183C1.86806 15.1979 2.9233 16.146 4.17492 16.7543C5.42655 17.3625 6.82404 17.6064 8.20769 17.4579C9.59134 17.3095 10.9053 16.7748 11.9995 15.9149C11.1161 15.2216 10.4019 14.3363 9.91117 13.3262C9.4204 12.3161 9.16582 11.2077 9.16671 10.0846Z" fill="#EB001B"/>
<path d="M23.291 14.679V14.4482H23.3879V14.3988H23.1427V14.4482H23.2395V14.6872L23.291 14.679ZM23.7669 14.679V14.3906H23.6928L23.6062 14.5966L23.5197 14.3906H23.4435V14.679H23.4971V14.4627L23.5774 14.6501H23.633L23.7134 14.4627V14.6811L23.7669 14.679Z" fill="#00A1DF"/>
<path d="M23.9977 10.0849C23.9974 11.4762 23.6057 12.8394 22.8674 14.0187C22.1291 15.1979 21.074 16.1458 19.8226 16.7539C18.5712 17.3619 17.1739 17.6058 15.7905 17.4575C14.4071 17.3091 13.0933 16.7747 11.9993 15.9152C12.8823 15.2212 13.5962 14.3357 14.0871 13.3256C14.578 12.3154 14.8331 11.2069 14.8331 10.0838C14.8331 8.96071 14.578 7.85225 14.0871 6.8421C13.5962 5.83195 12.8823 4.94648 11.9993 4.25249C13.0933 3.39235 14.4073 2.85738 15.791 2.70875C17.1748 2.56011 18.5724 2.8038 19.8242 3.41196C21.076 4.02012 22.1314 4.96821 22.8698 6.14785C23.6082 7.3275 23.9998 8.69111 23.9998 10.0828L23.9977 10.0849Z" fill="#00A1DF"/>
</svg>
