<svg width="24" height="25" viewBox="0 0 24 25" fill="none" xmlns="http://www.w3.org/2000/svg">
<g clip-path="url(#clip0)">
<path d="M23.527 21.2864V21.3344H23.5718C23.5802 21.3346 23.5885 21.3325 23.5958 21.3283C23.5987 21.3262 23.6011 21.3235 23.6026 21.3203C23.6042 21.3171 23.6049 21.3135 23.6048 21.3099C23.6049 21.3064 23.6042 21.303 23.6026 21.2998C23.601 21.2967 23.5987 21.294 23.5958 21.292C23.5886 21.2877 23.5802 21.2856 23.5718 21.2859H23.527V21.2864ZM23.5723 21.2524C23.5915 21.2512 23.6105 21.2568 23.626 21.268C23.6323 21.2731 23.6372 21.2797 23.6405 21.287C23.6438 21.2944 23.6453 21.3025 23.6449 21.3105C23.6452 21.3175 23.644 21.3244 23.6414 21.3309C23.6387 21.3373 23.6348 21.3431 23.6298 21.3479C23.6177 21.3583 23.6027 21.3646 23.5868 21.3658L23.6468 21.4342H23.6006L23.5454 21.3663H23.5275V21.4342H23.4889V21.2525H23.5729L23.5723 21.2524ZM23.5603 21.4969C23.5805 21.4971 23.6006 21.493 23.6192 21.4849C23.6371 21.4772 23.6534 21.4662 23.6672 21.4524C23.681 21.4386 23.6921 21.4223 23.6997 21.4043C23.7155 21.3663 23.7155 21.3235 23.6997 21.2854C23.692 21.2675 23.6809 21.2513 23.6672 21.2374C23.6534 21.2236 23.6371 21.2126 23.6192 21.2049C23.6005 21.1972 23.5805 21.1933 23.5603 21.1936C23.5397 21.1934 23.5193 21.1972 23.5003 21.2049C23.482 21.2124 23.4653 21.2235 23.4512 21.2374C23.43 21.2592 23.4156 21.2868 23.4099 21.3166C23.4042 21.3465 23.4074 21.3775 23.4192 21.4055C23.4265 21.4236 23.4374 21.4399 23.4512 21.4536C23.4653 21.4675 23.482 21.4785 23.5003 21.4861C23.5192 21.4942 23.5397 21.4983 23.5603 21.4981V21.4969ZM23.5603 21.1498C23.613 21.1498 23.6637 21.1705 23.7013 21.2075C23.7194 21.2253 23.7339 21.2464 23.7438 21.2698C23.754 21.2938 23.7593 21.3197 23.7593 21.3458C23.7593 21.3719 23.754 21.3977 23.7438 21.4217C23.7336 21.445 23.7192 21.4661 23.7013 21.4841C23.6829 21.5017 23.6614 21.516 23.638 21.5261C23.6135 21.5366 23.587 21.5419 23.5603 21.5417C23.5333 21.5419 23.5065 21.5366 23.4816 21.5261C23.4579 21.5162 23.4363 21.502 23.4178 21.4841C23.3999 21.4655 23.3857 21.4436 23.376 21.4197C23.3657 21.3957 23.3604 21.3699 23.3604 21.3437C23.3604 21.3176 23.3657 21.2918 23.376 21.2678C23.3859 21.2444 23.4003 21.2232 23.4184 21.2055C23.4366 21.1873 23.4583 21.173 23.4822 21.1634C23.5071 21.1529 23.5338 21.1476 23.5609 21.1478L23.5603 21.1498ZM5.18588 20.4481C5.18588 20.1016 5.41268 19.817 5.78336 19.817C6.1376 19.817 6.37664 20.0894 6.37664 20.4481C6.37664 20.8069 6.1376 21.0792 5.78336 21.0792C5.41268 21.0792 5.18588 20.7946 5.18588 20.4481ZM6.78044 20.4481V19.4621H6.35216V19.7023C6.21632 19.5248 6.01028 19.4135 5.73008 19.4135C5.17808 19.4135 4.74488 19.8468 4.74488 20.4486C4.74488 21.0504 5.17784 21.4837 5.73008 21.4837C6.01016 21.4837 6.21632 21.3723 6.35216 21.1949V21.4342H6.77996V20.4481H6.78044ZM21.2515 20.4481C21.2515 20.1016 21.4783 19.817 21.8491 19.817C22.2037 19.817 22.4424 20.0894 22.4424 20.4481C22.4424 20.8069 22.2037 21.0792 21.8491 21.0792C21.4784 21.0792 21.2515 20.7946 21.2515 20.4481ZM22.8465 20.4481V18.6707H22.4179V19.7023C22.282 19.5248 22.076 19.4135 21.7958 19.4135C21.2438 19.4135 20.8106 19.8468 20.8106 20.4486C20.8106 21.0504 21.2436 21.4837 21.7958 21.4837C22.076 21.4837 22.282 21.3723 22.4179 21.1949V21.4342H22.8465V20.4481ZM12.096 19.7967C12.372 19.7967 12.5492 19.9699 12.5944 20.2748H11.5725C11.6182 19.9902 11.7909 19.7967 12.0961 19.7967H12.096ZM12.1046 19.4124C11.5274 19.4124 11.1236 19.8327 11.1236 20.4475C11.1236 21.0743 11.5436 21.4826 12.1333 21.4826C12.4299 21.4826 12.7016 21.4085 12.9406 21.2064L12.7308 20.8888C12.5656 21.0209 12.3554 21.095 12.1578 21.095C11.8818 21.095 11.6305 20.9671 11.5687 20.6122H13.0311C13.0353 20.5589 13.0396 20.505 13.0396 20.4474C13.0353 19.8329 12.6556 19.4123 12.1044 19.4123L12.1046 19.4124ZM17.2752 20.4474C17.2752 20.1009 17.502 19.8163 17.8726 19.8163C18.2269 19.8163 18.4659 20.0887 18.4659 20.4474C18.4659 20.8061 18.2269 21.0785 17.8726 21.0785C17.502 21.0785 17.275 20.7939 17.275 20.4474H17.2752ZM18.8696 20.4474V19.4621H18.4416V19.7023C18.3052 19.5248 18.0997 19.4135 17.8195 19.4135C17.2675 19.4135 16.8343 19.8468 16.8343 20.4486C16.8343 21.0504 17.2672 21.4837 17.8195 21.4837C18.0997 21.4837 18.3052 21.3723 18.4416 21.1949V21.4342H18.8697V20.4481L18.8696 20.4474ZM14.8566 20.4474C14.8566 21.0454 15.2725 21.4825 15.9073 21.4825C16.2039 21.4825 16.4016 21.4165 16.6153 21.2475L16.4096 20.901C16.2488 21.0167 16.08 21.0785 15.8936 21.0785C15.5517 21.0743 15.3003 20.8269 15.3003 20.4474C15.3003 20.0679 15.5517 19.8206 15.8936 19.8163C16.0795 19.8163 16.2483 19.8781 16.4096 19.9938L16.6153 19.6473C16.4012 19.4783 16.2036 19.4123 15.9073 19.4123C15.2725 19.4123 14.8566 19.8493 14.8566 20.4474ZM20.3778 19.4123C20.1307 19.4123 19.9698 19.5279 19.8585 19.7011V19.4621H19.4341V21.4332H19.8628V20.3283C19.8628 20.0021 20.0029 19.8209 20.2828 19.8209C20.3745 19.8195 20.4655 19.8364 20.5507 19.8705L20.6827 19.4664C20.5879 19.4291 20.4643 19.4126 20.3775 19.4126L20.3778 19.4123ZM8.89784 19.6189C8.6918 19.4829 8.40788 19.4126 8.09468 19.4126C7.59572 19.4126 7.27448 19.652 7.27448 20.0436C7.27448 20.365 7.51364 20.5633 7.95404 20.6251L8.15636 20.654C8.3912 20.687 8.50208 20.7488 8.50208 20.8602C8.50208 21.0126 8.34608 21.0995 8.05316 21.0995C7.75652 21.0995 7.54244 21.0047 7.39808 20.8933L7.19684 21.2276C7.43168 21.4007 7.72832 21.4834 8.04956 21.4834C8.61836 21.4834 8.948 21.2153 8.948 20.84C8.948 20.4935 8.68856 20.3123 8.25992 20.2504L8.05808 20.2211C7.87268 20.1971 7.72412 20.1598 7.72412 20.0277C7.72412 19.8835 7.86416 19.7968 8.09912 19.7968C8.35052 19.7968 8.59388 19.8917 8.71316 19.9658L8.89856 19.6193L8.89784 19.6189ZM14.424 19.413C14.1769 19.413 14.016 19.5287 13.9052 19.7018V19.4621H13.4808V21.4332H13.909V20.3283C13.909 20.0021 14.0491 19.8209 14.329 19.8209C14.4207 19.8195 14.5117 19.8364 14.5969 19.8705L14.7289 19.4664C14.6341 19.4291 14.5105 19.4126 14.4237 19.4126L14.424 19.413ZM10.7692 19.4621H10.0689V18.8642H9.63596V19.4621H9.23648V19.8539H9.63596V20.753C9.63596 21.2104 9.81332 21.4828 10.32 21.4828C10.5058 21.4828 10.7199 21.4251 10.8558 21.3304L10.732 20.9633C10.6042 21.0374 10.4642 21.0748 10.3528 21.0748C10.1388 21.0748 10.0689 20.9427 10.0689 20.7449V19.8542H10.7692V19.4621ZM4.36616 21.4336V20.1966C4.36616 19.7308 4.06952 19.4173 3.59132 19.4131C3.33992 19.4089 3.0806 19.4872 2.89904 19.7638C2.7632 19.5452 2.54912 19.4131 2.24816 19.4131C2.0378 19.4131 1.83224 19.475 1.67132 19.7058V19.4621H1.24268V21.4332H1.67468V20.3403C1.67468 19.9981 1.86428 19.8163 2.15708 19.8163C2.44148 19.8163 2.58536 20.0018 2.58536 20.336V21.4329H3.01832V20.34C3.01832 19.9979 3.21596 19.8161 3.50024 19.8161C3.79268 19.8161 3.93224 20.0016 3.93224 20.3357V21.4327L4.36616 21.4336Z" fill="#231F20"/>
<path d="M23.7716 14.8769V14.5887H23.6966L23.6098 14.7865L23.5235 14.5887H23.4483V14.8769H23.5016V14.6598L23.5827 14.8471H23.6379L23.719 14.6593V14.8769H23.7718H23.7716ZM23.2958 14.8769V14.638H23.3918V14.5894H23.1465V14.638H23.2425V14.8769H23.2953H23.2958Z" fill="#F79410"/>
<path d="M15.2472 16.1128H8.75684V4.43924H15.2473L15.2472 16.1128Z" fill="#FF5F00"/>
<path d="M9.168 10.276C9.168 7.90799 10.2758 5.79858 12.001 4.43919C10.6951 3.40868 9.08002 2.84939 7.41708 2.85185C3.32064 2.85185 0 6.17569 0 10.276C0 14.3762 3.32064 17.7001 7.41708 17.7001C9.08007 17.7026 10.6952 17.1433 12.0011 16.1127C10.2761 14.7536 9.168 12.6441 9.168 10.276Z" fill="#EB001B"/>
<path d="M24.0031 10.2765C24.0031 14.3767 20.6825 17.7006 16.5861 17.7006C14.9229 17.703 13.3076 17.1437 12.0015 16.1132C13.7271 14.7538 14.8349 12.6446 14.8349 10.2765C14.8349 7.90835 13.7271 5.79907 12.0015 4.43967C13.3075 3.4092 14.9228 2.84992 16.5859 2.85233C20.6824 2.85233 24.003 6.17618 24.003 10.2765" fill="#F79E1B"/>
</g>
<defs>
<clipPath id="clip0">
<rect width="24" height="24" fill="white" transform="translate(0 0.196777)"/>
</clipPath>
</defs>
</svg>
