<svg width="157" height="53" viewBox="0 0 157 53" fill="none" xmlns="http://www.w3.org/2000/svg">
<path d="M73.1328 58.87C73.1328 58.87 66.4986 68.7279 63.8812 70.6952C63.8812 70.6952 61.0636 70.8093 60.2769 68.054L68.0029 50.5524L73.1328 58.87Z" fill="#F7A98F"/>
<path d="M105.017 55.1869L107.904 68.9754C107.904 68.9754 110.363 69.3123 112.025 69.7063C113.688 70.1003 116.17 71.3367 116.17 71.3367C116.17 71.3367 116.301 79.9953 114.595 82.3566C114.595 82.3566 101.214 80.0868 100.033 77.8104C98.8523 75.534 90.1937 57.4288 89.4057 57.2988C88.6191 57.1675 77.7292 53.1307 77.4665 53.7064C77.2038 54.2822 72.854 64.1214 72.854 64.1214C72.854 64.1214 66.1255 62.9248 63.1606 58.8575C63.1606 58.8575 69.5959 45.0982 70.2512 44.0489C70.9079 42.9996 87.3071 43.3047 87.3071 43.3047L105.017 55.1869Z" fill="#6CAEE3"/>
<path d="M89.3355 57.3111C88.9561 56.2723 88.5714 55.223 88.0991 54.2228C88.0156 54.045 87.932 53.854 87.8046 53.7028C87.7264 53.6099 87.6998 53.5834 87.7105 53.4441C87.7516 52.8803 88.0248 52.2913 88.2185 51.7659C88.3976 51.2778 88.586 50.7936 88.7837 50.3133C88.8181 50.2298 88.9548 50.2669 88.9203 50.3505C88.5303 51.299 88.0832 52.2886 87.8776 53.2955C87.8444 53.4613 87.8312 53.5104 87.9161 53.6126C88.0381 53.7598 88.1204 53.9389 88.2026 54.11C88.4852 54.7017 88.7253 55.3146 88.9627 55.9248C89.1365 56.3718 89.3077 56.8202 89.4721 57.2713C89.5027 57.3588 89.366 57.396 89.3355 57.3111Z" fill="#016FC2"/>
<path d="M76.7981 49.8683C77.1338 51.2546 77.3434 52.6661 77.4256 54.0895C77.4309 54.1757 77.3142 54.1757 77.2876 54.1081C76.6164 52.4551 75.8748 50.8314 75.0683 49.2395C75.0272 49.1586 75.1492 49.0869 75.1903 49.1679C76.0022 50.7704 76.7477 52.4061 77.4243 54.0696C77.3778 54.0762 77.3314 54.0815 77.2863 54.0882C77.2041 52.6767 76.9958 51.2785 76.6642 49.9054C76.6403 49.8179 76.7769 49.7807 76.7981 49.8683Z" fill="#016FC2"/>
<path d="M90.5105 51.6718C90.2571 52.3231 90.009 52.9758 89.7676 53.6311C89.5912 54.1113 89.416 54.5916 89.2555 55.0771C89.1627 55.3557 89.0154 55.682 89.0075 55.9805C89.0048 56.0707 88.8642 56.072 88.8668 55.9805C88.8748 55.69 89.0075 55.3822 89.0977 55.1103C89.2582 54.6194 89.4346 54.1339 89.6124 53.6497C89.8605 52.9758 90.1138 52.3032 90.3752 51.6346C90.407 51.5497 90.5436 51.5869 90.5105 51.6718Z" fill="#016FC2"/>
<path d="M88.0859 16.4454C88.0859 16.4454 81.8165 14.2672 80.6876 13.7658C79.5587 13.2643 71.1587 6.87018 70.0298 7.37163C68.9009 7.87307 68.1487 9.46364 68.1487 9.46364C68.1487 9.46364 75.1703 18.7816 78.1167 20.9134C81.063 23.0452 87.2077 25.6519 87.2077 25.6519L88.0859 16.4454Z" fill="#F7A98F"/>
<path d="M106.418 21.9231C106.418 21.9231 113.11 24.372 114.946 26.3406C116.783 28.3079 122.336 35.2619 122.336 35.9172C122.336 36.5726 115.513 38.1472 115.252 38.5412C114.989 38.9352 107.905 47.0685 107.511 49.0371C107.117 51.0044 106.725 59.4017 106.725 59.4017C106.725 59.4017 103.314 60.5824 97.2781 56.9091C91.2422 53.2344 82.3222 43.2652 82.3222 43.2652L86.5209 42.3458C86.5209 42.3458 89.2762 28.5985 88.6195 28.3225C87.9629 28.0466 82.0596 26.2862 81.5356 25.6574C81.5356 25.6574 81.0885 19.3827 84.592 14.7927C84.592 14.7927 85.8655 15.1363 93.7375 17.3265C101.607 19.518 106.418 21.9231 106.418 21.9231Z" fill="#FFE700"/>
<path d="M126.145 42.1716C125.781 40.8066 105.849 30.6264 105.239 30.6264C104.629 30.6264 104.366 31.5006 104.366 31.5006C104.366 31.5006 102.18 30.4513 101.392 30.6264C100.605 30.8015 97.2808 46.5441 97.2808 47.7698C97.2808 48.9943 118.884 59.5777 120.459 58.222C122.033 56.8649 126.495 43.4836 126.145 42.1716Z" fill="#7C4415"/>
<path d="M107.742 31.8772C107.058 37.7328 106.345 43.701 103.991 49.1639C103.735 49.7582 103.436 50.4162 102.801 50.6842C102.26 50.9137 101.646 50.8075 101.195 50.4401C101.125 50.383 101.225 50.2835 101.294 50.3406C101.829 50.7757 102.618 50.7731 103.133 50.3048C103.627 49.8564 103.857 49.1321 104.101 48.5325C104.611 47.2815 105.039 46 105.404 44.7013C106.147 42.0574 106.627 39.3472 107.007 36.629C107.227 35.0478 107.414 33.4625 107.6 31.8772C107.612 31.7883 107.752 31.787 107.742 31.8772Z" fill="#F9D275"/>
<path d="M103.82 32.457C103.82 32.457 100.747 31.868 99.3444 30.7258C99.3444 30.7258 95.6539 45.7653 95.8277 46.0558L100.68 47.6252C100.68 47.6252 102.385 40.9352 102.963 37.7368C103.481 34.8794 103.82 32.457 103.82 32.457Z" fill="#27A77E"/>
<path d="M104.145 32.0595C104.145 32.0595 102.831 31.8393 101.909 31.042L98.1179 46.1743C98.1179 46.1743 98.9908 46.8044 100.841 47.2104L104.145 32.0595Z" fill="#2ACC98"/>
<path d="M104.704 30.9799C104.33 31.6034 104.176 32.3065 104.029 33.0096C103.878 33.7379 103.693 34.4582 103.527 35.1825C103.176 36.7187 102.855 38.2615 102.539 39.8043C102.226 41.3312 101.918 42.8594 101.579 44.381C101.413 45.1213 101.24 45.8588 101.056 46.5938C100.932 47.0873 100.879 47.6325 100.702 48.1087C100.633 48.2918 100.529 48.4868 100.355 48.5903C100.105 48.7388 99.7731 48.6341 99.5131 48.5624C98.8405 48.378 98.2316 48.0265 97.7235 47.5502C97.6572 47.4879 97.7567 47.3884 97.823 47.4507C98.3138 47.9111 98.9002 48.2493 99.5502 48.4271C99.8911 48.52 100.263 48.6102 100.477 48.2573C100.606 48.045 100.654 47.7837 100.698 47.5423C100.929 46.286 101.288 45.0483 101.561 43.8C102.186 40.9372 102.726 38.0559 103.379 35.1997C103.552 34.4409 103.742 33.6861 103.901 32.9247C104.047 32.2242 104.209 31.5278 104.581 30.9083C104.63 30.8313 104.752 30.9016 104.704 30.9799Z" fill="#F9D275"/>
<path d="M70.2893 4.99276C69.4257 3.63964 68.1575 1.60732 68.1575 1.60732C68.1575 1.60732 67.6561 2.23479 68.1575 3.11166C68.659 3.98853 68.785 5.58972 68.785 5.58972C68.777 5.49686 67.867 5.01796 67.7688 4.945C67.1201 4.45682 66.5669 3.84394 66.0429 3.22973C65.7909 2.9339 65.576 2.61685 65.3399 2.30775C65.1767 2.09417 64.8756 1.49589 64.5757 1.42823C63.6856 1.23057 64.7721 3.14615 64.8676 3.30534C65.0467 3.59984 65.3982 4.00976 65.4367 4.35069C65.2735 4.34671 65.1369 4.15834 65.0255 4.05088C64.7243 3.75638 64.451 3.4327 64.1857 3.10636C63.9881 2.86359 63.7957 2.6195 63.5941 2.37939C63.5344 2.30775 63.3752 2.05438 63.281 2.02917C62.9467 1.93896 62.9812 2.61154 63.0144 2.78134C63.0833 3.13952 63.3314 3.44994 63.5609 3.72322C63.7745 3.97659 64.004 4.21671 64.2414 4.44753C64.4086 4.60937 64.8941 4.89857 64.8305 5.16123C64.6315 5.17052 64.4152 4.86673 64.2892 4.73275C64.0544 4.48335 63.8315 4.22069 63.606 3.962C63.4455 3.77628 63.1523 3.20452 62.879 3.18064C62.6283 3.15942 62.6177 3.52158 62.635 3.70863C62.6748 4.13313 62.9281 4.53774 63.159 4.88398C63.4163 5.26869 63.8594 5.64278 64.0491 6.05668C63.5423 5.65605 63.0701 5.22623 62.5779 4.80571C62.4492 4.6956 62.2741 4.57621 62.2304 4.83357C62.1839 5.11082 62.5806 5.64676 62.753 5.84442C63.4336 6.62313 64.1884 7.35142 64.9618 8.04124C65.0533 8.12349 65.1462 8.20574 65.2404 8.28533C65.6795 8.66208 68.7611 10.2619 68.7611 10.2619C68.7611 10.2619 72.1704 7.9391 70.2893 4.99276Z" fill="#F7A98F"/>
<path d="M122.341 35.9164C122.341 35.9164 125.62 39.8962 124.483 41.9073C123.346 43.9184 114.162 54.4886 113.725 53.7085C113.287 52.9285 113.113 50.5566 113.113 50.5566C113.113 50.5566 117.137 40.8579 116.961 40.3326C116.786 39.8073 113.771 34.8233 113.771 34.8233C113.771 34.8233 119.848 34.0353 122.341 35.9164Z" fill="#F7A98F"/>
<path d="M113.458 50.6285C113.422 50.4826 113.373 50.3353 113.285 50.2239C112.975 49.8312 112.337 49.6322 111.878 49.489C110.929 49.1931 109.957 49.2608 109.018 48.9C108.592 48.7368 108.077 48.5192 107.618 48.5272C107.537 49.0658 107.955 49.4359 108.389 49.6243C108.588 49.7105 108.798 49.7888 109.001 49.8631C109.229 49.9453 109.47 50.0342 109.681 50.1496C109.843 50.2398 110.037 50.2915 110.2 50.3924C109.708 50.3658 109.217 50.3831 108.739 50.2809C108.206 50.1655 107.71 49.8524 107.191 49.749C106.667 49.6442 106.269 49.4797 105.786 49.2356C105.626 49.1547 105.46 49.0127 105.339 49.1878C105.142 49.4757 105.378 50.0833 105.53 50.3473C105.716 50.6723 106.082 50.7943 106.346 51.0358C106.611 51.2772 106.432 51.5996 106.593 51.9033C106.772 52.2403 107.094 52.4764 107.381 52.7165C108.374 53.551 109.616 53.7486 110.86 53.9582C111.599 54.0829 112.317 54.1413 113.055 54.0338C113.341 53.9927 113.713 53.8853 113.949 53.7168C114.291 53.4727 113.994 53.0734 113.989 52.7179C113.985 52.491 113.928 52.2748 113.89 52.0453C113.863 51.8702 113.836 51.6911 113.775 51.5239C113.687 51.2825 113.559 51.1087 113.507 50.8553C113.492 50.785 113.477 50.7068 113.458 50.6285Z" fill="#F7A98F"/>
<path d="M120.608 39.375C119.271 39.3272 117.959 39.6827 116.829 40.3991C116.752 40.4482 116.682 40.3261 116.757 40.277C117.906 39.5474 119.247 39.1839 120.607 39.233C120.698 39.237 120.698 39.3776 120.608 39.375Z" fill="#7C4415"/>
<path d="M109.079 51.5282C108.197 51.3438 107.34 51.0572 106.528 50.6659C106.182 50.4987 105.792 50.3276 105.496 50.0756C105.393 49.9867 105.3 49.8792 105.256 49.7466C105.2 49.5794 105.288 49.2624 105.117 49.1562C105.04 49.1085 105.112 48.9864 105.188 49.0342C105.438 49.1907 105.311 49.472 105.393 49.7094C105.527 50.0968 106.174 50.3342 106.508 50.5001C107.336 50.9087 108.213 51.2045 109.116 51.3929C109.207 51.4101 109.168 51.5467 109.079 51.5282Z" fill="#7C4415"/>
<path d="M108.53 52.1204C107.824 51.9545 107.15 51.6773 106.539 51.2859C106.089 50.9981 105.413 50.5961 105.36 50.0085C105.352 49.9182 105.492 49.9182 105.5 50.0085C105.531 50.3374 105.804 50.559 106.043 50.754C106.297 50.9623 106.569 51.148 106.855 51.3125C107.389 51.6216 107.966 51.8431 108.567 51.9837C108.655 52.0063 108.618 52.1416 108.53 52.1204Z" fill="#7C4415"/>
<path d="M108.395 52.6482C107.538 52.351 106.792 51.8323 106.219 51.1293C106.162 51.059 106.262 50.9595 106.319 51.0298C106.876 51.7143 107.598 52.2237 108.432 52.5129C108.517 52.5421 108.481 52.6787 108.395 52.6482Z" fill="#7C4415"/>
<path d="M114.479 26.3055C114.164 26.3015 113.939 26.6252 113.744 26.8335C113.569 27.0218 113.398 27.2155 113.234 27.4132C112.907 27.8032 112.602 28.2118 112.318 28.6336C111.748 29.4853 111.27 30.394 110.888 31.3452C110.855 31.4287 110.719 31.3916 110.752 31.308C111.174 30.256 111.709 29.2531 112.36 28.3245C112.667 27.8841 112.999 27.4609 113.353 27.0577C113.63 26.7406 114.007 26.1596 114.478 26.1662C114.57 26.1649 114.57 26.3055 114.479 26.3055Z" fill="#F7931E"/>
<path d="M93.8216 17.5593C90.0807 19.7428 89.7172 24.549 88.6811 28.3006C88.6572 28.3881 88.5206 28.351 88.5445 28.2635C89.4134 25.1195 89.7357 21.6385 91.8914 19.0318C92.4168 18.3977 93.0389 17.8524 93.75 17.4372C93.8283 17.3921 93.8999 17.5142 93.8216 17.5593Z" fill="#F7931E"/>
<path d="M88.6336 28.511C87.9982 27.0146 87.2195 25.5872 86.3054 24.2433C86.2537 24.1677 86.3771 24.0974 86.4275 24.1717C87.3415 25.5155 88.1215 26.9443 88.7556 28.4393C88.7901 28.5229 88.6681 28.5945 88.6336 28.511Z" fill="#F7931E"/>
<path d="M96.7656 52.3883C93.7596 50.0973 90.8305 47.2651 90.0186 43.422C89.8037 42.4031 89.76 41.3578 89.9138 40.327C89.9271 40.2382 90.0637 40.2753 90.0505 40.3642C89.4827 44.1887 91.6862 47.6882 94.3659 50.2021C95.1485 50.937 95.983 51.6149 96.8373 52.2663C96.9089 52.322 96.8386 52.444 96.7656 52.3883Z" fill="#F7931E"/>
<path d="M89.9638 30.6948C89.1267 34.5074 88.9768 38.4645 89.5326 42.3276C89.6892 43.4193 89.9041 44.5018 90.1694 45.5737C90.1919 45.6613 90.0553 45.6997 90.0327 45.6108C89.0816 41.7863 88.8242 37.7986 89.2832 33.8852C89.4106 32.8014 89.5936 31.7242 89.8271 30.6576C89.847 30.5687 89.9837 30.6059 89.9638 30.6948Z" fill="#F7931E"/>
<path d="M110.135 32.9674C109.773 31.5957 109.562 30.1922 109.504 28.7741C109.5 28.6839 109.642 28.6839 109.645 28.7741C109.703 30.1789 109.912 31.5705 110.271 32.9303C110.295 33.0178 110.158 33.055 110.135 32.9674Z" fill="#F7931E"/>
<path d="M65.765 4.2022C65.2198 4.961 64.6361 5.68929 64.0139 6.38708C63.9555 6.45208 63.8613 6.35656 63.9184 6.29156C64.5326 5.60307 65.1096 4.88406 65.6482 4.13454C65.6986 4.06423 65.8154 4.13189 65.765 4.2022Z" fill="#7C4415"/>
<path d="M100.665 10.3599C100.665 9.18583 100.702 8.0065 100.803 6.83646C100.859 6.19306 100.885 5.39446 101.095 4.78423C101.326 4.11033 102.298 3.87685 102.917 3.75746C104.02 3.54388 105.754 3.32764 106.771 3.82379C106.571 3.93787 106.25 3.94318 106.014 3.98298C107.063 4.55075 108.517 4.72586 109.66 5.1769C110.374 5.45814 111.094 5.79907 111.778 6.15459C112.011 6.27664 112.377 6.3947 112.535 6.60828C112.319 6.64277 112.115 6.57114 111.901 6.58573C112.079 6.74094 112.433 6.92534 112.534 7.13626C112.413 7.19331 112.107 7.4175 111.966 7.41485C111.924 7.82211 112.005 7.99987 111.924 8.40713C111.868 8.695 111.909 9.3437 111.634 9.53074C111.408 9.68595 110.963 9.42196 110.744 9.55728C110.373 9.78412 110.192 11.0245 110.061 11.4344C109.81 12.2211 109.542 13.0024 109.261 13.7798C108.744 15.2125 108.246 16.7805 107.415 18.07C107.327 18.2066 107.092 18.6444 106.868 18.5701C106.091 18.3127 100.665 10.3599 100.665 10.3599Z" fill="#7C4415"/>
<path d="M107.708 13.3319C107.708 13.3319 106.299 20.8443 106.456 21.314C106.612 21.7836 109.617 23.2826 109.617 23.2826C109.617 23.2826 104.108 26.0883 101.135 24.6795C98.1608 23.2707 97.926 19.6703 97.926 19.6703C97.926 19.6703 101.057 20.6878 101.213 20.1399C101.37 19.5921 102.779 14.3494 102.779 14.3494L107.708 13.3319Z" fill="#F7A98F"/>
<path d="M107.721 8.70026C108.386 8.84884 108.091 10.9913 108.164 11.5829C108.239 12.1746 108.127 12.9321 108.127 12.9321C108.127 12.9321 109.568 11.4357 110.234 11.5829C110.898 11.7302 110.16 14.0225 109.569 14.5399C108.978 15.0572 108.017 15.0572 108.017 15.0572C108.017 15.0572 106.465 17.6441 105.652 17.9399C104.839 18.2357 102.252 18.8407 101.364 18.4268C100.477 18.0129 99.665 14.8344 100.33 11.8045C100.994 8.77455 101.586 7.29541 101.586 7.29541C101.586 7.29541 101.807 8.03432 103.249 8.58883C104.179 8.94701 107.721 8.70026 107.721 8.70026Z" fill="#F7A98F"/>
<path d="M104.273 16.0301C104.273 16.0301 102.143 15.6282 101.099 14.8389C101.099 14.8389 101.225 16.1058 102.193 16.6258C103.16 17.1458 104.273 16.0301 104.273 16.0301Z" fill="white"/>
<path d="M104.781 12.666C104.781 13.0334 105.07 13.3306 105.426 13.3306C105.782 13.3306 106.07 13.0334 106.07 12.666C106.07 12.2985 105.781 12.0013 105.426 12.0013C105.07 12.0027 104.781 12.2998 104.781 12.666Z" fill="#001C31"/>
<path d="M100.621 11.4915C100.621 11.859 100.91 12.1561 101.265 12.1561C101.622 12.1561 101.91 11.859 101.91 11.4915C101.91 11.1254 101.621 10.8269 101.265 10.8269C100.91 10.8282 100.621 11.1254 100.621 11.4915Z" fill="#001C31"/>
<path d="M107.127 16.5814C106.45 17.38 105.734 18.2224 104.791 18.7146C104.35 18.9441 103.873 19.0714 103.375 19.0515C102.801 19.029 102.107 18.9255 101.614 18.6164C101.537 18.5686 101.607 18.4466 101.685 18.4943C102.173 18.8008 102.91 18.9082 103.477 18.9136C103.999 18.9175 104.491 18.7398 104.933 18.4731C105.762 17.9703 106.406 17.2142 107.027 16.4819C107.086 16.4129 107.185 16.5124 107.127 16.5814Z" fill="#7C4415"/>
<path d="M102.561 14.3905C102.27 14.3096 101.972 14.1676 102.019 13.8174C102.051 13.5733 102.209 13.3292 102.308 13.109C102.434 12.8278 102.56 12.5465 102.687 12.2666C102.725 12.1844 102.847 12.256 102.809 12.3383C102.669 12.6527 102.527 12.9657 102.386 13.2801C102.321 13.4247 102.161 13.6529 102.163 13.8055C102.165 13.9142 102.258 14.1079 102.348 14.1676C102.415 14.2114 102.52 14.2339 102.6 14.2565C102.686 14.279 102.649 14.4144 102.561 14.3905Z" fill="#7C4415"/>
<path d="M106.359 12.6477C105.975 12.1767 105.378 11.9539 104.779 12.0733C104.69 12.0905 104.652 11.9552 104.742 11.9366C105.387 11.8079 106.042 12.0361 106.46 12.5468C106.516 12.6172 106.416 12.718 106.359 12.6477Z" fill="#001C31"/>
<path d="M102.062 11.3133C101.681 10.9405 101.148 10.8132 100.638 10.9684C100.551 10.9949 100.514 10.8583 100.601 10.8317C101.158 10.6633 101.746 10.8079 102.162 11.2138C102.227 11.2775 102.128 11.377 102.062 11.3133Z" fill="#001C31"/>
<path d="M107.234 11.2193C106.652 10.7802 106.001 10.3093 105.23 10.4393C105.141 10.4539 105.103 10.3186 105.193 10.3026C106.009 10.1647 106.685 10.629 107.306 11.0973C107.378 11.1517 107.307 11.2737 107.234 11.2193Z" fill="#001C31"/>
<path d="M102.569 9.70546C102.181 9.35922 101.635 8.99707 101.111 9.27167C101.03 9.31412 100.959 9.19207 101.04 9.14962C101.626 8.84318 102.227 9.21065 102.669 9.60464C102.736 9.66566 102.637 9.76516 102.569 9.70546Z" fill="#001C31"/>
<path d="M111.992 8.41417C111.689 8.53356 111.391 8.43274 111.127 8.2656C110.742 8.02416 110.456 7.79864 109.984 7.76813C109.597 7.74425 109.209 7.80129 108.837 7.89946C108.503 7.98701 107.815 8.14753 107.764 8.5654C107.754 8.65428 107.612 8.65561 107.624 8.5654C107.665 8.22978 107.96 8.07059 108.247 7.94987C108.614 7.79466 109.007 7.69649 109.401 7.64873C109.782 7.6023 110.194 7.59965 110.557 7.74557C111.013 7.92864 111.412 8.49244 111.955 8.27886C112.038 8.2457 112.076 8.38233 111.992 8.41417Z" fill="#1F1105"/>
<path d="M112.406 7.26535C111.885 7.61557 111.213 7.70313 110.624 7.4723C110.29 7.34097 110.026 7.09024 109.705 6.93503C109.336 6.75727 108.916 6.72676 108.515 6.69758C108.174 6.67237 107.841 6.64318 107.505 6.57686C107.064 6.4893 106.578 6.40971 106.164 6.63788C105.455 7.0279 105.131 7.93926 104.989 8.68612C104.972 8.775 104.836 8.73786 104.852 8.64898C104.988 7.93926 105.262 7.21361 105.814 6.72013C106.41 6.18817 107.101 6.38318 107.809 6.49196C108.532 6.60339 109.294 6.51849 109.948 6.90718C110.34 7.14065 110.671 7.40862 111.146 7.45373C111.57 7.49353 111.983 7.38209 112.336 7.14463C112.41 7.0929 112.48 7.21494 112.406 7.26535Z" fill="#1F1105"/>
<path d="M112.442 7.19775C110.784 6.47344 109.075 5.59259 107.233 5.5183C106.473 5.48779 105.464 5.54483 104.869 6.0874C104.546 6.38191 104.516 6.76131 104.442 7.16592C104.354 7.64083 104.253 8.11177 104.215 8.59464C104.208 8.68485 104.066 8.68485 104.074 8.59464C104.114 8.09983 104.218 7.61563 104.306 7.12745C104.375 6.74804 104.403 6.39119 104.669 6.08873C105.178 5.51167 106.101 5.3936 106.824 5.37238C108.841 5.31401 110.716 6.28772 112.515 7.07306C112.596 7.11153 112.525 7.23357 112.442 7.19775Z" fill="#1F1105"/>
<path d="M101.488 7.26946C101.397 6.9418 101.307 6.61546 101.216 6.28779C101.193 6.20024 101.328 6.16309 101.353 6.25065C101.445 6.57831 101.535 6.90465 101.626 7.23232C101.649 7.31855 101.512 7.35702 101.488 7.26946Z" fill="#1F1105"/>
<path d="M19.9864 6.86767C19.9864 6.86767 20.3924 16.2148 20.7996 17.3318C21.2056 18.4501 25.5753 26.0474 26.2864 26.8208C26.9974 27.5929 21.6566 31.9414 21.6566 31.9414C21.6566 31.9414 17.3452 22.6155 16.6342 18.2471C15.9231 13.8787 17.8878 5.61538 18.4967 5.31026C19.1056 5.00515 19.9864 6.86767 19.9864 6.86767Z" fill="#F7A98F"/>
<path d="M20.1114 7.18756C20.7787 6.91694 21.1899 5.33963 21.8572 4.39245C22.5245 3.44527 22.9874 3.17598 22.884 3.04066C22.7818 2.90535 22.7301 2.86025 22.2167 3.04066C21.7033 3.22108 20.727 4.39245 20.727 4.39245C20.727 4.39245 20.4192 3.67079 20.5213 2.54452C20.6235 1.41693 20.7787 0.42597 20.6235 0.245555C20.4696 0.0651397 20.1101 0.245555 20.1101 0.245555C20.1101 0.245555 19.9562 1.19273 19.7506 2.09348V0.164632C19.7506 0.164632 19.4932 -0.0953778 19.1337 0.164632C18.7742 0.424642 18.6721 2.72494 18.6721 2.72494V0.922112C18.6721 0.922112 18.2104 0.696592 18.0552 1.46336C17.9013 2.23012 17.3879 5.88088 17.644 6.37702C17.904 6.87183 20.1114 7.18756 20.1114 7.18756Z" fill="#F7A98F"/>
<path d="M20.3202 17.6572C20.1265 17.8509 19.9315 18.0459 19.7378 18.2396C19.6874 18.2887 19.6105 18.2117 19.6609 18.1627C19.8546 17.969 20.0496 17.774 20.2433 17.5803C20.2923 17.5299 20.3693 17.6068 20.3202 17.6572Z" fill="#7C4415"/>
<path d="M20.0479 2.73951C19.4708 2.76339 18.9084 2.86421 18.3579 3.04064C18.2942 3.06054 18.2676 2.96105 18.33 2.94115C18.8885 2.76074 19.4616 2.66124 20.0479 2.63604C20.1142 2.63338 20.1142 2.73686 20.0479 2.73951Z" fill="#7C4415"/>
<path d="M19.4145 0.00728367C19.5126 0.0643267 19.5325 0.13596 19.5458 0.246066C19.579 0.50873 19.5392 0.789967 19.5219 1.05263C19.4835 1.60714 19.4702 2.16298 19.449 2.71749C19.4463 2.78382 19.3428 2.78382 19.3455 2.71749C19.3627 2.28768 19.3773 1.85787 19.3959 1.42673C19.4052 1.21182 19.4251 0.996914 19.4357 0.782007C19.4437 0.628124 19.5193 0.187697 19.3614 0.0974898C19.3044 0.0629987 19.3574 -0.0258809 19.4145 0.00728367Z" fill="#7C4415"/>
<path d="M20.7811 4.33014C20.7705 4.53576 20.606 4.61801 20.423 4.67373C19.9865 4.80506 19.5501 4.96292 19.3697 5.42457C19.3458 5.48559 19.245 5.45906 19.2702 5.39671C19.3604 5.16589 19.5103 4.98813 19.7172 4.85016C19.8273 4.7772 19.9454 4.72016 20.0688 4.67373C20.2479 4.60607 20.6657 4.57291 20.6777 4.33014C20.6803 4.26381 20.7851 4.26381 20.7811 4.33014Z" fill="#7C4415"/>
<path d="M35.1268 28.114C35.1268 28.114 36.5794 41.8309 34.5484 43.5329C34.1916 43.8313 34.1372 44.1776 34.3123 44.4774C35.1082 45.8451 36.7187 47.7089 37.5279 52.2644C37.8689 54.184 36.7731 59.1799 36.7731 60.3884C36.7731 61.5956 41.7133 73.3412 42.7003 74.9888C43.6886 76.6351 46.6522 77.1843 48.8477 80.3681C48.8477 80.3681 45.0059 80.8072 43.0293 81.4651C41.0527 82.1231 36.2226 84.4287 35.4545 84.4287C34.6864 84.4287 30.6244 81.9042 28.868 80.9159C27.1116 79.9276 20.1961 73.3412 19.6469 72.6832C19.0977 72.0252 18.3296 66.8648 13.9386 64.8895C9.54766 62.9129 4.93777 64.1214 3.94947 63.5722V61.8158C3.94947 61.8158 1.425 61.9259 -0.00240707 60.0594C-0.00240707 60.0594 2.85239 54.3511 4.60879 52.7048C6.36518 51.0586 12.6863 46.385 18.7236 46.6039C24.7609 46.8241 23.4662 43.5461 23.2114 42.6679C22.9554 41.7897 21.9525 41.7274 21.8437 39.4218C21.8437 39.4218 19.099 35.9819 19.9772 33.7865C20.8554 31.591 25.1337 25.9198 25.8089 26.1347C26.6141 26.3908 28.7579 26.5473 28.7579 26.5473C28.7579 26.5473 35.3391 26.4863 35.1268 28.114Z" fill="#FFE700"/>
<path d="M24.3041 18.3996C24.0096 17.6673 23.2919 15.0898 24.0626 12.6701C24.8334 10.2504 30.1569 11.3554 30.7619 12.4592C31.1466 13.1623 32.2264 12.9885 32.8804 13.202C33.8329 13.5125 34.5758 14.1187 35.5601 14.4079C37.0419 14.843 38.4839 15.2636 39.9352 15.8022C44.4018 17.4604 48.8644 19.1266 53.3496 20.7105C55.0914 21.326 56.7947 21.9548 58.4994 22.6526C58.9491 22.837 59.8936 23.0466 60.07 23.5176C60.3075 24.1543 59.5805 25.5684 59.3895 26.1628C59.2595 26.566 59.0632 27.8886 58.6387 28.0531C58.3455 28.1659 57.4713 27.618 57.2431 27.5132C56.2415 27.0542 55.2333 26.7 54.18 26.371C51.9116 25.6626 49.4879 25.3416 47.2645 24.5682C49.3831 25.3986 51.7165 25.6162 53.8192 26.5395C54.9388 27.0317 56.3848 27.496 57.3532 28.2548C57.5137 28.3795 57.8387 28.6302 57.8759 28.8385C57.925 29.1104 57.2736 30.5789 57.0534 30.6944C56.4087 31.0326 54.176 29.6968 53.5724 29.4858C51.0307 28.5944 48.4704 27.7215 45.8358 27.1365C47.758 27.5145 49.5741 28.2163 51.3637 29.0123C52.1092 29.3439 53.1652 29.718 53.721 30.2951C51.8558 30.2062 49.7612 29.7034 47.9159 29.3213C44.6565 28.6474 41.4395 27.7825 38.2305 26.9123C36.4622 26.4321 34.666 25.7608 32.8671 25.4185C31.9478 25.2434 31.051 25.4252 30.1675 25.1957C28.3183 24.7181 27.9654 23.6277 27.0249 22.252C26.1732 21.0077 24.8745 19.819 24.3041 18.3996Z" fill="#F9D275"/>
<path d="M29.2248 15.7561C29.2593 15.7389 29.2911 15.7415 29.3177 15.7999C29.3429 15.8543 29.3084 15.9325 29.319 15.9896C29.3336 16.0692 29.3707 16.1448 29.3867 16.2257C29.4052 16.3226 29.4158 16.4101 29.441 16.507C29.5525 16.9368 29.656 17.3745 29.9067 17.7526C30.1441 18.1121 30.2158 18.8338 30.5846 19.0872C30.7663 19.2119 31.2704 18.8669 31.4919 18.725C31.7917 18.5313 32.1022 18.2023 32.4219 18.5406C32.8185 18.9611 32.4975 19.769 32.268 20.2055C32.0862 20.549 31.9005 20.9616 31.4919 21.0903C31.3062 21.1487 31.0661 21.1288 30.9189 21.2773C30.6429 21.5533 30.5527 22.1847 30.3776 22.5336C29.9518 23.3853 29.4291 24.3073 28.5682 24.8206C28.0627 25.1218 27.2681 25.2199 26.6791 25.1337C26.4058 25.0939 26.1962 24.9347 25.9853 24.7689C25.322 24.2462 24.8564 23.5524 24.5606 22.7817C24.3602 22.259 24.266 21.6793 24.1214 21.1434C23.9609 20.5477 24.144 19.7916 24.213 19.1853C24.2329 19.0129 24.2475 18.8391 24.2674 18.6666C24.2859 18.518 24.3218 18.3681 24.3231 18.2182C24.3244 18.1121 24.3045 18.0073 24.2966 17.9025C24.2912 17.815 24.2859 17.7261 24.2966 17.6398C24.3045 17.5722 24.3377 17.5112 24.3443 17.4435C24.3509 17.3825 24.3549 17.34 24.3708 17.2803C24.3974 17.1809 24.412 17.08 24.4425 16.9819C24.5897 16.5123 24.8245 16.0679 25.1297 15.6752C25.2 15.585 25.2782 15.4709 25.3658 15.3939C25.4427 15.3263 25.5409 15.2785 25.6231 15.2188C25.7399 15.1339 25.9508 15.0437 26.1007 15.0782C26.2652 15.1154 26.4005 15.2467 26.5372 15.3343C26.6008 15.374 26.6526 15.4258 26.7202 15.4576C26.8449 15.5173 26.9709 15.5704 27.1049 15.6075C27.4804 15.711 27.8558 15.7826 28.2392 15.8516C28.5297 15.9034 28.8972 16.0201 29.1452 15.8171C29.1718 15.7933 29.1983 15.7694 29.2248 15.7561Z" fill="#F7A98F"/>
<path d="M30.8554 20.0394L31.6328 27.4418C30.606 28.3491 29.1269 32.6725 28.5432 32.8303C27.9595 32.9882 22.624 33.1806 22.7964 32.1286C22.9689 31.0766 24.9614 28.438 25.2506 28.2205C25.5385 28.0029 26.9513 26.931 27.1808 26.5636C27.4103 26.1961 27.1808 22.5122 27.1808 22.5122L30.8554 20.0394Z" fill="#F7A98F"/>
<path d="M27.6602 22.2405C27.6602 22.2405 26.0072 22.4899 25.0455 22.1993C25.0455 22.1993 25.466 23.0497 26.3031 23.1717C27.1401 23.2938 27.6602 22.2405 27.6602 22.2405Z" fill="white"/>
<path d="M27.9084 19.197C27.9084 19.4915 28.1499 19.7303 28.4484 19.7303C28.7468 19.7303 28.9883 19.4915 28.9883 19.197C28.9883 18.9025 28.7468 18.6637 28.4484 18.6637C28.1512 18.6637 27.9084 18.9025 27.9084 19.197Z" fill="#001C31"/>
<path d="M24.1663 19.0656C24.1663 19.3601 24.4077 19.5989 24.7062 19.5989C25.0047 19.5989 25.2461 19.3601 25.2461 19.0656C25.2461 18.7711 25.0047 18.5323 24.7062 18.5323C24.4077 18.5323 24.1663 18.7711 24.1663 19.0656Z" fill="#001C31"/>
<path d="M31.686 20.9921C31.5374 21.1433 31.3583 21.2494 31.1474 21.2853C30.9948 21.3118 30.9457 21.2826 30.8847 21.4299C30.8264 21.5718 30.7932 21.731 30.7494 21.8769C30.5849 22.4129 30.4005 22.9488 30.0676 23.4051C29.7492 23.8403 29.318 24.1918 28.8643 24.4797C28.3748 24.7901 27.8084 25.1111 27.2141 25.1178C27.1398 25.1191 27.1398 25.0024 27.2141 25.0024C27.7447 24.997 28.2369 24.7251 28.6813 24.4571C29.062 24.2276 29.4228 23.957 29.728 23.632C30.3581 22.9607 30.5571 22.0719 30.8303 21.2203C30.8383 21.1977 30.8608 21.1765 30.886 21.1778C31.166 21.1977 31.4074 21.1115 31.6037 20.9098C31.6568 20.8568 31.739 20.939 31.686 20.9921Z" fill="#7C4415"/>
<path d="M26.3166 21.535C26.0752 21.4475 25.8656 21.486 25.8099 21.1888C25.7276 20.7444 25.7594 20.2483 25.79 19.8012C25.7953 19.7269 25.9107 19.7269 25.9054 19.8012C25.8855 20.0957 25.8775 20.3889 25.8881 20.6834C25.8934 20.8147 25.8749 20.9991 25.916 21.1238C26.0155 21.4183 26.1415 21.3493 26.3458 21.4236C26.4174 21.4488 26.3869 21.5616 26.3166 21.535Z" fill="#7C4415"/>
<path d="M29.0998 19.0779C28.7695 18.6614 28.1911 18.6242 27.8091 18.9983C27.756 19.0501 27.6738 18.9691 27.7268 18.9161C28.1487 18.5035 28.812 18.5287 29.1821 18.9957C29.2272 19.0527 29.1463 19.135 29.0998 19.0779Z" fill="#001C31"/>
<path d="M25.3578 18.9522C25.0275 18.5356 24.4491 18.4985 24.067 18.8726C24.014 18.9243 23.9317 18.8434 23.9848 18.7903C24.4066 18.3778 25.0699 18.403 25.44 18.8699C25.4851 18.9283 25.4029 19.0106 25.3578 18.9522Z" fill="#001C31"/>
<path d="M29.2037 18.1059C28.8429 17.7968 28.3653 17.7079 27.913 17.8486C27.8413 17.8711 27.8108 17.7597 27.8825 17.7371C28.3746 17.5846 28.8933 17.688 29.2847 18.025C29.343 18.0727 29.2608 18.1537 29.2037 18.1059Z" fill="#001C31"/>
<path d="M25.3399 17.633C25.0215 17.434 24.6342 17.4234 24.3065 17.6078C24.2415 17.6449 24.1831 17.5441 24.2481 17.5083C24.6103 17.304 25.0454 17.312 25.3983 17.5335C25.4619 17.572 25.4036 17.6728 25.3399 17.633Z" fill="#001C31"/>
<path d="M31.4592 12.9691C30.8105 13.1601 30.3554 13.4785 30.0424 14.0861C29.7518 14.6485 29.5144 15.2428 29.2544 15.8199C29.2239 15.8876 29.1244 15.8292 29.1549 15.7615C29.4481 15.1089 29.6961 14.4018 30.0742 13.7929C30.3913 13.2808 30.8635 13.0235 31.4287 12.8577C31.5003 12.8364 31.5308 12.9479 31.4592 12.9691Z" fill="white"/>
<path d="M30.4775 13.4209C28.9453 12.6979 26.9687 11.9563 25.5745 13.3678C24.9483 14.0019 24.7693 14.8788 24.6684 15.7318C24.5689 16.5835 24.3195 17.4205 24.2904 18.2802C24.2877 18.3544 24.1723 18.3544 24.1749 18.2802C24.1922 17.788 24.2851 17.3104 24.3806 16.8289C24.4721 16.3646 24.5278 15.8989 24.5928 15.4307C24.7096 14.587 24.9616 13.7539 25.6169 13.1702C27.0762 11.8701 28.9957 12.5944 30.5372 13.3214C30.6036 13.3532 30.5452 13.4527 30.4775 13.4209Z" fill="white"/>
<path d="M30.2216 13.6208C29.5968 13.4695 28.9508 13.313 28.3034 13.3634C27.6719 13.4138 27.1227 13.6858 26.6465 14.0944C25.7922 14.8306 25.1673 15.7871 24.5624 16.7276C24.5226 16.79 24.4218 16.7316 24.4629 16.6692C25.1143 15.6571 25.7988 14.5878 26.7699 13.8476C27.1917 13.5266 27.6706 13.3143 28.1999 13.2586C28.8924 13.1843 29.5835 13.3488 30.2521 13.5107C30.3238 13.5279 30.2933 13.6393 30.2216 13.6208Z" fill="white"/>
<path d="M29.7354 14.6047C30.5207 14.2041 31.4559 13.9667 32.3023 14.3262C32.7613 14.5212 33.0823 14.8767 33.4326 15.2163C33.8531 15.6249 34.2842 16.0242 34.7273 16.4089C36.4519 17.9106 38.3635 19.1363 40.4714 20.0252C44.4273 21.694 48.7161 22.2856 52.8325 23.4265C55.1262 24.0619 57.376 24.8818 59.4256 26.1062C59.4893 26.1447 59.4309 26.2442 59.3672 26.2057C55.7351 24.0328 51.5497 23.1957 47.4784 22.2485C45.4355 21.7736 43.3939 21.2629 41.4265 20.5279C39.434 19.7824 37.5595 18.7888 35.8695 17.4914C34.8931 16.7419 33.9778 15.9167 33.1022 15.0518C32.6459 14.6021 32.1484 14.289 31.4918 14.2638C30.8975 14.2413 30.3191 14.4363 29.7964 14.7029C29.7274 14.7387 29.669 14.6392 29.7354 14.6047Z" fill="white"/>
<path d="M45.3431 8.89868C45.3431 8.89868 46.5503 7.14228 48.0878 5.55038C49.624 3.95848 49.7766 3.80858 49.7766 3.80858C49.7766 3.80858 50.1732 3.73827 49.953 4.17737C49.7341 4.61647 48.7007 5.94703 48.7007 5.94703C48.7007 5.94703 50.3921 4.12165 50.8312 4.12165C51.2703 4.12165 51.1881 4.57402 51.1881 4.57402C51.1881 4.57402 51.5449 4.50504 51.655 4.83536C51.7651 5.16435 49.8986 7.08524 49.8986 7.08524C49.8986 7.08524 51.8606 5.90458 52.0397 6.26143C52.1963 6.57583 49.7341 8.01783 49.4051 8.34682C49.0761 8.67581 51.2106 8.33753 51.1615 8.89602C51.1337 9.20777 50.7702 9.15205 50.7702 9.15205C50.7702 9.15205 49.5351 9.28073 48.702 9.60972C47.8689 9.93872 46.8263 9.99443 46.8263 9.99443L45.3431 8.89868Z" fill="#F7A98F"/>
<path d="M47.4435 9.22872C47.4011 9.2924 39.5265 22.9137 39.4177 23.3528C39.3076 23.7919 35.7935 33.9827 35.6847 34.4762C35.5746 34.9697 35.5202 37.1108 34.971 37.9346C34.4218 38.7584 31.77 38.2278 31.2208 34.7694C30.6715 31.311 33.2 24.8386 35.0652 20.5033C36.9317 16.1667 44.7957 9.06423 45.3449 8.89973C45.8927 8.73391 47.8388 8.63707 47.4435 9.22872Z" fill="#F7A98F"/>
<path d="M51.1162 4.47988C50.4847 4.98531 49.9846 5.61809 49.6384 6.34904C49.6052 6.41802 49.5044 6.35832 49.5362 6.28934C49.8877 5.54911 50.3945 4.90837 51.0339 4.39631C51.0923 4.34988 51.1759 4.43213 51.1162 4.47988Z" fill="#7C4415"/>
<path d="M39.6403 21.5198C39.3246 21.7811 39.0089 22.0425 38.6918 22.3038C38.6335 22.3516 38.5499 22.2693 38.6083 22.2202C38.924 21.9589 39.2397 21.6976 39.5568 21.4375C39.6151 21.3885 39.6987 21.472 39.6403 21.5198Z" fill="#7C4415"/>
<path d="M35.1385 31.417C34.2497 32.0511 33.5625 32.9227 33.1539 33.9349C33.1261 34.0039 33.012 33.9733 33.0399 33.903C33.4617 32.859 34.1621 31.9689 35.0788 31.3149C35.1398 31.2711 35.1995 31.3732 35.1385 31.417Z" fill="#7C4415"/>
<path d="M30.2301 35.7377C30.3429 36.7168 29.6504 37.583 28.7921 37.9717C27.6605 38.4838 26.3472 38.1534 25.2382 37.7502C25.1679 37.725 25.1984 37.6109 25.27 37.6361C26.3101 38.0141 27.5159 38.3325 28.5971 37.9253C29.4859 37.5896 30.2261 36.726 30.112 35.7377C30.1041 35.6621 30.2222 35.6634 30.2301 35.7377Z" fill="#5D355E"/>
<path d="M33.9178 50.0649C33.748 52.3825 33.1961 54.6629 32.2821 56.7987C31.8218 57.8759 31.2713 58.9132 30.6358 59.8962C30.0163 60.854 29.3252 61.7614 28.6858 62.7059C27.9601 63.7791 27.3074 64.9067 26.9426 66.1564C26.9214 66.2293 26.8073 66.1988 26.8285 66.1245C27.4547 63.9781 28.898 62.2403 30.1397 60.4269C31.4769 58.4741 32.493 56.3264 33.1192 54.0434C33.4747 52.742 33.7016 51.4088 33.7997 50.0636C33.805 49.9893 33.9231 49.9893 33.9178 50.0649Z" fill="#5D355E"/>
<path d="M25.6813 49.073C24.7765 50.4394 23.3943 51.3773 21.9058 52.0127C20.1441 52.7636 18.2272 53.1775 16.3382 53.4494C14.534 53.7081 12.7179 53.736 10.9098 53.9323C9.15074 54.1233 7.41291 54.6924 6.20837 56.0562C4.75709 57.6972 4.38432 59.9391 4.04737 62.0271C4.03543 62.1014 3.92135 62.0709 3.93329 61.9953C4.22779 60.1752 4.54086 58.2875 5.56366 56.7128C6.479 55.304 7.92231 54.4099 9.54472 54.0358C11.2361 53.6458 13.0098 53.6962 14.7303 53.5251C16.764 53.3234 18.7897 52.9666 20.7345 52.3258C22.6182 51.705 24.4621 50.7061 25.5818 49.0147C25.6216 48.9497 25.7237 49.0094 25.6813 49.073Z" fill="#5D355E"/>
<path d="M35.418 41.1172C35.418 41.1172 35.2654 42.3867 32.7038 43.1243C29.0252 44.1842 23.1298 42.652 23.0688 42.6812C23.0078 42.7104 23.2214 44.6883 23.496 44.8953C23.496 44.8953 27.1852 45.6329 27.7649 45.7218C28.3446 45.8106 34.3501 45.9579 34.8688 45.0717C35.3875 44.1869 35.418 41.1172 35.418 41.1172Z" fill="#E08DAA"/>
<path d="M132.258 21.7838C132.258 21.7838 132.772 24.8204 132.472 26.7015C132.172 28.5826 134.31 30.465 135.422 30.0365C136.534 29.6093 136.961 29.0959 136.961 29.0959L136.149 28.7537C136.149 28.7537 135.251 29.6093 134.439 29.0535C133.626 28.4976 133.156 27.8131 133.199 27.0862C133.241 26.3592 133.541 22.7244 133.37 22.0823C133.199 21.4416 132.258 21.7838 132.258 21.7838Z" fill="#DC6501"/>
<path d="M141.204 16.5267C142.223 17.8374 143.885 21.3236 143.776 22.5547C143.667 23.7858 142.573 25.7584 142.159 26.7029C141.745 27.6488 142.159 28.6915 142.159 28.6915L132.876 23.2021C132.876 23.2021 131.546 22.0347 131.935 20.0912C132.324 18.1465 133.491 16.7854 136.083 16.5267C138.677 16.2667 140.161 15.1855 141.204 16.5267Z" fill="#DC6501"/>
<path d="M140.507 23.5394C140.507 23.5394 140.54 23.7119 140.601 24.0051C140.881 25.3489 141.744 29.2344 142.656 30.7109C142.656 30.7109 139.914 32.9489 139.321 32.5628C138.728 32.1768 137.914 31.6077 137.914 31.6077C137.914 31.6077 137.691 30.309 137.172 29.4533C136.653 28.5977 140.507 23.5394 140.507 23.5394Z" fill="#F7A98F"/>
<path d="M137.245 19.8025C137.245 19.8025 138.995 22.591 139.255 22.9544C139.513 23.3179 140.141 22.6507 140.141 22.6507C140.141 22.6507 140.78 21.1171 141.624 21.6013C142.466 22.0869 141.513 25.0956 140.768 25.065C140.024 25.0345 140.833 26.6715 140.141 27.6612C139.448 28.6508 137.634 29.9243 136.856 29.7412C136.079 29.5595 134.199 27.559 133.29 25.5585C132.383 23.558 133.095 21.0734 134.004 20.4671C134.911 19.8635 137.245 19.8025 137.245 19.8025Z" fill="#F7A98F"/>
<path d="M139.262 20.3151C139.262 20.3151 139.911 22.7785 141.012 23.6859C142.114 24.5933 142.114 24.8719 144.513 24.7976C146.911 24.7233 148.207 26.2144 148.661 27.3168C149.114 28.4191 149.828 30.1225 149.828 30.1225C149.828 30.1225 148.142 27.1867 147.235 26.4094C146.327 25.632 144.901 25.372 143.734 25.7607C142.566 26.1494 140.516 25.3295 139.273 23.2614C138.031 21.1932 137.728 19.474 137.728 19.474L139.262 20.3151Z" fill="#DC6501"/>
<path d="M141.848 16.3294C141.199 16.5244 140.875 16.9781 140.875 16.9781L139.384 16.3944C139.384 16.3944 138.953 15.292 140.142 14.0609C141.261 12.9002 143.673 12.9771 145.085 13.3884C146.913 13.9203 148.714 14.5425 150.51 15.1713C152.009 15.6953 153.561 15.9951 155.071 16.5456C156.073 16.9104 157.101 17.4026 157.854 18.1641C156.709 17.5008 155.126 17.3389 153.86 17.2076C154.909 17.8271 156.252 18.2755 157.401 18.7769C158.418 19.2214 159.648 19.3222 160.598 19.7427C160.182 19.9762 159.482 19.9549 158.99 20.012C157.771 20.1513 156.554 20.2521 155.327 20.2521C152.945 20.2508 150.879 19.8077 148.676 18.9773C147.414 18.5023 146.231 18.1707 144.898 17.989C144.351 17.9147 143.458 17.7714 143.028 17.388C142.685 17.0816 142.53 16.1251 141.848 16.3294Z" fill="#DC6501"/>
<path d="M137.578 26.5125C137.578 26.5125 136.047 27.3243 135.014 27.2925C135.014 27.2925 135.704 28.1495 136.561 28.0248C137.419 27.9014 137.578 26.5125 137.578 26.5125Z" fill="white"/>
<path d="M136.601 23.6543C136.601 23.9872 136.863 24.2578 137.187 24.2578C137.511 24.2578 137.773 23.9872 137.773 23.6543C137.773 23.3213 137.511 23.0507 137.187 23.0507C136.863 23.0507 136.601 23.3213 136.601 23.6543Z" fill="#001C31"/>
<path d="M140.756 25.0249C140.789 26.0026 140.813 27.0785 140.133 27.8598C139.78 28.2644 139.338 28.5855 138.894 28.8826C138.443 29.1837 137.97 29.5552 137.469 29.7648C137.393 29.7966 137.36 29.6719 137.435 29.6414C137.899 29.4477 138.334 29.0988 138.754 28.8216C139.194 28.5324 139.629 28.222 139.986 27.8333C140.687 27.0665 140.661 26.0039 140.628 25.0262C140.625 24.9413 140.754 24.9427 140.756 25.0249Z" fill="#7C4415"/>
<path d="M135.995 26.0257C135.813 26.1517 135.567 26.291 135.353 26.1517C135.266 26.096 135.226 26.0084 135.204 25.9116C135.16 25.7325 135.136 25.5454 135.103 25.3637C135.089 25.2828 135.212 25.2483 135.226 25.3292C135.262 25.5216 135.272 25.7444 135.341 25.9275C135.448 26.214 135.766 26.0283 135.931 25.9156C135.999 25.8678 136.062 25.9792 135.995 26.0257Z" fill="#7C4415"/>
<path d="M137.933 21.9415C137.379 21.7796 136.813 21.8526 136.32 22.1471C136.248 22.1895 136.184 22.0781 136.255 22.037C136.777 21.7252 137.383 21.647 137.967 21.8181C138.045 21.842 138.012 21.9653 137.933 21.9415Z" fill="#001C31"/>
<path d="M133.931 22.8712C133.53 22.8155 133.231 22.9588 132.944 23.2294C132.884 23.2864 132.793 23.1949 132.854 23.1392C133.178 22.8327 133.517 22.6855 133.966 22.7478C134.047 22.7585 134.012 22.8818 133.931 22.8712Z" fill="#001C31"/>
<path d="M138.275 23.2402C137.737 22.9669 137.11 23.0146 136.616 23.3596C136.549 23.4073 136.484 23.2959 136.551 23.2495C137.083 22.878 137.761 22.8369 138.338 23.1301C138.413 23.1659 138.348 23.2773 138.275 23.2402Z" fill="#001C31"/>
<path d="M133.011 24.5372C133.011 24.8702 133.274 25.1408 133.597 25.1408C133.921 25.1408 134.184 24.8702 134.184 24.5372C134.184 24.2042 133.921 23.9336 133.597 23.9336C133.274 23.9323 133.011 24.2029 133.011 24.5372Z" fill="#001C31"/>
<path d="M134.492 24.1185C134.021 23.8492 133.473 23.893 133.046 24.2286C132.985 24.2763 132.9 24.1914 132.961 24.1437C133.431 23.7749 134.032 23.7165 134.553 24.015C134.619 24.0535 134.56 24.157 134.492 24.1185Z" fill="#001C31"/>
<path d="M142.947 24.7987C141.62 24.5785 140.584 23.4682 139.977 22.3313C139.648 21.7158 139.446 21.0564 139.17 20.4197C139.023 20.0801 138.833 19.6834 138.524 19.4632C138.076 19.1448 137.6 19.5322 137.268 19.8386C137.207 19.8944 137.117 19.8041 137.178 19.7484C137.589 19.369 138.173 18.9658 138.681 19.4221C139.207 19.8944 139.398 20.6678 139.646 21.3019C140.225 22.7757 141.293 24.3968 142.98 24.6767C143.062 24.6886 143.028 24.812 142.947 24.7987Z" fill="#F9D275"/>
<path d="M137.316 19.6322C137.159 19.0008 136.578 18.5351 135.934 18.4768C135.273 18.4171 134.645 18.8071 134.224 19.2833C133.751 19.8166 133.505 20.5051 133.344 21.1896C133.194 21.8251 133.192 22.5427 132.894 23.1317C132.857 23.206 132.747 23.141 132.784 23.0667C132.985 22.6701 133.012 22.2257 133.089 21.7959C133.164 21.3833 133.251 20.9734 133.381 20.5741C133.601 19.9028 133.954 19.2674 134.519 18.827C135.006 18.4476 135.643 18.2313 136.253 18.4065C136.824 18.5696 137.296 19.0154 137.439 19.5964C137.459 19.6773 137.336 19.7118 137.316 19.6322Z" fill="#F9D275"/>
<path d="M141.184 16.6206C140.646 16.1908 139.976 16.0038 139.293 16.0794C139.21 16.0887 139.212 15.96 139.293 15.9507C140.012 15.8711 140.711 16.0794 141.275 16.5291C141.34 16.5822 141.248 16.6724 141.184 16.6206Z" fill="#F9D275"/>
<path d="M140.38 16.1767C139.994 16.2205 139.73 16.5137 139.498 16.7989C139.243 17.1133 138.998 17.4343 138.755 17.758C138.301 18.3616 137.866 18.9785 137.446 19.6046C137.399 19.6736 137.289 19.6086 137.336 19.5396C137.836 18.7928 138.358 18.0618 138.906 17.3481C139.286 16.852 139.698 16.125 140.381 16.0467C140.462 16.0388 140.461 16.1675 140.38 16.1767Z" fill="#F9D275"/>
<path d="M154.695 50.9091C154.695 50.9091 157.2 56.5139 157.677 58.4229C158.155 60.3318 158.551 62.0803 158.195 63.7504C157.836 65.4206 157.395 67.8363 157.32 68.4412C157.103 70.2043 156.344 80.9814 156.344 80.9814C156.344 80.9814 158.035 79.0552 161.971 78.9358C165.907 78.8165 170.916 77.6716 170.916 77.6716C170.916 77.6716 172.852 84.3563 172.54 84.9254C172.54 84.9254 154.816 89.6122 153.386 89.522C151.954 89.4318 150.047 88.531 148.854 84.9254C147.662 81.321 146.954 62.8351 146.001 63.5515C145.047 64.2665 132.992 71.5415 132.038 72.7354C131.085 73.928 129.773 76.5971 127.746 80.5105C125.719 84.4239 122.975 89.5246 122.975 89.5246C122.975 89.5246 120.435 89.3203 117.727 86.7932C115.063 84.3072 115.42 83.7487 115.342 83.5882C115.342 83.5882 123.81 68.3232 125.122 67.25C126.434 66.1768 141.699 55.9196 141.937 54.9658C142.176 54.012 142.057 50.275 142.057 50.275L154.695 50.9091Z" fill="#001C31"/>
<path d="M135.616 39.9334C135.616 39.9334 126.79 39.814 123.331 39.3378C119.873 38.8602 112.717 35.0436 112.717 34.5674C112.717 34.0898 112.717 32.3693 112.717 32.3693L129.772 34.8062L136.477 36.1513L135.616 39.9334Z" fill="#F49276"/>
<path d="M142.245 30.2713C145.421 29.7261 146.768 28.7962 148.724 31.8102C150.373 34.3506 155.099 48.4774 155.169 50.3226C155.241 52.1679 157.793 55.69 157.793 55.69C157.793 55.69 153.645 57.4796 148.563 55.69C143.48 53.9004 142.365 55.2124 141.79 54.378C141.387 53.793 141.65 52.7039 141.659 52.0485C141.675 50.8612 141.582 49.5572 141.029 48.48C140.671 47.7836 140.282 47.1136 139.928 46.4265C139.653 45.8932 139.33 45.1476 138.925 44.7059C138.619 44.3716 138.247 43.6977 137.82 43.6446C136.646 43.5 135.404 43.1246 134.817 42.1058C134.108 40.8774 134.407 40.0177 134.676 38.7283C134.868 37.809 135.138 36.9069 135.351 35.9916C135.494 35.3787 135.676 34.7247 135.892 34.1357C136.056 33.69 136.387 33.4286 136.745 33.1076C137.487 32.443 138.323 31.8845 139.196 31.4069C139.872 31.0368 140.574 30.7131 141.294 30.4372C141.536 30.3443 141.984 30.3151 142.245 30.2713Z" fill="#FFE700"/>
<path d="M110.541 30.1089C110.57 30.1858 110.599 30.2614 110.63 30.3371C110.654 30.3954 110.675 30.4565 110.699 30.5161C110.711 30.544 110.748 30.6143 110.745 30.6435C110.648 30.5599 110.54 30.4684 110.469 30.3596C110.345 30.1633 110.223 29.9696 110.138 29.752C110.119 29.703 110.093 29.6592 110.07 29.6114C110.043 29.557 110.028 29.5013 110.006 29.4469C109.968 29.3514 109.904 29.2678 109.852 29.179C109.815 29.1153 109.783 29.049 109.749 28.9839C109.685 28.8632 109.599 28.7558 109.535 28.6351C109.474 28.521 109.416 28.4042 109.348 28.2928C109.289 28.196 109.218 28.0978 109.149 28.0076C109.102 27.9452 109.058 27.8829 109.001 27.8298C108.925 27.7595 108.698 27.4955 108.555 27.6242C108.467 27.7025 108.532 27.8935 108.555 27.9877C108.617 28.249 108.674 28.5117 108.757 28.769C108.804 28.9189 108.843 29.0715 108.888 29.2214C108.932 29.3687 108.995 29.5106 109.039 29.6592C109.059 29.7242 109.09 29.7905 109.115 29.8542C109.133 29.9019 109.143 29.9497 109.159 29.9988C109.169 30.0293 109.186 30.0572 109.197 30.0877C109.206 30.1129 109.212 30.1527 109.237 30.1686C109.21 30.1487 109.19 30.1076 109.175 30.0784C109.135 30.0054 109.107 29.9258 109.066 29.8529C108.956 29.6565 108.868 29.4443 108.789 29.232C108.705 29.0092 108.62 28.785 108.55 28.5581C108.503 28.4082 108.438 28.2663 108.385 28.119C108.331 27.9704 108.265 27.7343 108.063 27.7701C107.979 27.7847 107.963 27.8656 107.947 27.9346C107.926 28.0301 107.943 28.1442 107.943 28.2424C107.95 28.1946 107.924 28.1708 107.908 28.1296C107.896 28.0978 107.893 28.0553 107.869 28.0288C107.847 28.0036 107.816 27.9996 107.784 27.9864C107.741 27.9678 107.742 27.9757 107.705 27.9917C107.685 28.0009 107.678 27.9943 107.658 28.0063C107.654 28.0076 107.624 28.0354 107.624 28.0354C107.599 28.0633 107.585 28.0978 107.569 28.131C107.545 28.1787 107.526 28.2159 107.524 28.2702C107.522 28.3419 107.526 28.4148 107.524 28.4865C107.524 28.5846 107.542 28.6762 107.559 28.7717C107.581 28.8924 107.612 29.0131 107.636 29.1352C107.687 29.3952 107.798 29.6459 107.873 29.8993C107.937 30.1115 108.046 30.3105 108.101 30.5268C108.121 30.6064 108.152 30.682 108.176 30.7602C108.193 30.816 108.202 30.8743 108.222 30.93C108.201 30.8902 108.188 30.8478 108.172 30.8067C108.138 30.7218 108.089 30.6475 108.06 30.5613C107.997 30.3689 107.906 30.1872 107.831 30.0014C107.767 29.8436 107.729 29.6778 107.654 29.5239C107.596 29.4031 107.581 29.1312 107.398 29.1418C107.376 29.1431 107.349 29.1484 107.331 29.163C107.296 29.1896 107.292 29.2347 107.292 29.2745C107.291 29.3328 107.296 29.3899 107.291 29.4482C107.284 29.5318 107.3 29.6207 107.282 29.703C107.258 29.8144 107.282 29.9391 107.285 30.0518C107.289 30.1447 107.301 30.2362 107.304 30.3291C107.309 30.5467 107.413 30.7695 107.484 30.9712C107.527 31.0906 107.572 31.21 107.618 31.328C107.811 31.8242 107.971 32.3548 108.279 32.7939C108.495 33.103 108.753 33.4174 109.098 33.5832C109.286 33.6747 109.461 33.8021 109.648 33.8989C109.752 33.952 109.862 33.9626 109.969 34.0011C110.131 34.0595 110.301 34.1178 110.459 34.1855C110.587 34.2399 110.692 34.3049 110.829 34.3367C110.953 34.3646 111.053 34.4123 111.171 34.4574C111.405 34.5463 111.666 34.5622 111.899 34.6538C112.086 34.728 112.297 34.7931 112.491 34.8488C112.659 34.8979 112.825 34.9602 112.994 35.0106C113.093 35.0411 113.266 35.1605 113.359 35.1433C113.469 35.122 113.486 34.9337 113.613 34.9748C113.437 34.8315 113.445 34.6803 113.414 34.4813C113.373 34.208 113.3 33.944 113.271 33.6668C113.247 33.4386 113.185 33.2171 113.132 32.9955C113.108 32.8974 113.073 32.7939 113.068 32.6917C113.065 32.6347 113.081 32.5777 113.076 32.5219C113.068 32.4463 113.015 32.388 112.969 32.3322C112.909 32.2593 112.844 32.1797 112.776 32.1147C112.687 32.0271 112.593 31.9183 112.537 31.8069C112.51 31.7499 112.472 31.7061 112.434 31.653C112.394 31.6 112.37 31.5443 112.334 31.4885C112.259 31.3678 112.178 31.2471 112.096 31.1304C112.011 31.0083 111.934 30.881 111.857 30.7536C111.814 30.6833 111.776 30.6117 111.737 30.5387C111.703 30.4737 111.651 30.4193 111.617 30.3543C111.592 30.3079 111.564 30.2654 111.537 30.2203C111.501 30.158 111.477 30.0877 111.439 30.0266C111.33 29.8502 111.211 29.6778 111.113 29.496C111.082 29.439 111.033 29.3978 110.997 29.3461C110.964 29.297 110.927 29.2532 110.898 29.2028C110.875 29.163 110.85 29.1246 110.823 29.0874C110.788 29.0397 110.76 28.9866 110.724 28.9388C110.693 28.8977 110.672 28.8486 110.64 28.8088C110.613 28.773 110.575 28.7452 110.545 28.7093C110.497 28.655 110.452 28.5873 110.391 28.5448C110.325 28.4984 110.274 28.5886 110.265 28.6497C110.257 28.708 110.266 28.7743 110.266 28.834C110.266 28.9269 110.269 29.0118 110.282 29.102C110.288 29.1445 110.282 29.1856 110.285 29.228C110.288 29.2745 110.303 29.3249 110.311 29.3713C110.322 29.4337 110.329 29.5013 110.346 29.5623C110.38 29.6857 110.42 29.8184 110.469 29.9378C110.494 29.9895 110.518 30.0492 110.541 30.1089Z" fill="#F49276"/>
<path d="M144.462 35.344C144.718 36.8842 146.943 41.0749 148.91 44.9233C150.877 48.7717 152.93 52.8775 152.93 52.8775L151.732 53.2197C151.732 53.2197 149.508 49.2002 147.455 45.2656C145.403 41.3309 142.922 35.088 142.922 35.088L144.462 35.344Z" fill="#F7931E"/>
<path d="M156.086 51.1659C156.086 51.1659 154.717 43.8962 151.895 37.4808C149.072 31.0655 147.897 28.6922 145.395 30.04C145.395 30.04 146.935 29.6978 148.987 34.0596C151.04 38.4214 155.145 50.3102 154.974 51.337C154.803 52.3624 156.086 51.1659 156.086 51.1659Z" fill="#F7931E"/>
<path d="M151.485 39.146C151.036 37.2065 148.702 30.6585 146.639 30.0483C144.578 29.4367 133.579 32.0342 132.739 31.9572C131.9 31.8803 129.379 30.8562 125.789 30.6811C122.2 30.5059 115.25 30.8124 115.174 31.1175C115.097 31.4226 115.174 32.9508 115.174 32.9508C115.174 32.9508 130.219 36.3111 132.434 36.5406C134.65 36.7701 144.196 36.7701 145.035 37.5329C145.875 38.297 148.166 41.7328 149.77 41.5803C151.375 41.4277 151.841 40.6822 151.485 39.146Z" fill="#F7A98F"/>
<path d="M116.246 31.5756C116.246 31.5756 113.191 26.6115 112.886 26.6871C112.581 26.7641 112.581 26.7641 112.581 26.7641L113.497 29.1307C113.138 28.6306 112.778 28.1305 112.419 27.6303C112.306 27.4725 112.192 27.3146 112.079 27.1581C112.033 27.0931 111.986 27.0294 111.941 26.9644C111.915 26.9272 111.879 26.8477 111.838 26.8251C111.801 26.8052 111.74 26.8052 111.698 26.7893C111.644 26.7694 111.588 26.7482 111.53 26.7641C111.482 26.776 111.425 26.8437 111.375 26.8304C111.32 26.8158 111.302 26.7707 111.242 26.7667C111.198 26.7641 111.16 26.7747 111.117 26.78C110.997 26.7946 110.921 26.7972 110.84 26.8981C110.792 26.9564 110.749 27.0175 110.753 27.0957C110.758 27.1926 110.807 27.2907 110.839 27.3809C110.88 27.5003 110.922 27.6184 110.964 27.7365C111.088 28.0933 111.214 28.4502 111.339 28.807C111.441 29.0989 111.543 29.3907 111.647 29.6839C111.679 29.7741 111.71 29.8643 111.742 29.9558C111.742 29.9558 109.986 26.841 109.756 26.9936C109.527 27.1461 109.756 27.5282 109.756 27.5282C110.108 28.2737 110.459 29.0206 110.812 29.7661C110.934 30.0235 111.055 30.2822 111.177 30.5395C111.217 30.6231 111.254 30.6961 111.307 30.7704C111.347 30.8247 111.399 31.037 111.277 31.0131C111.25 31.0078 111.229 30.9879 111.204 30.9773C111.165 30.9614 111.127 30.9468 111.09 30.9282C111.039 30.903 111.003 30.8659 110.954 30.838C110.889 30.8009 110.847 30.7558 110.791 30.7067C110.735 30.6576 110.665 30.6205 110.607 30.5753C110.556 30.5369 110.506 30.5077 110.453 30.4759C110.414 30.4533 110.393 30.4215 110.355 30.4016C110.32 30.383 110.288 30.3684 110.255 30.3525C110.17 30.3127 110.087 30.2729 109.996 30.257C109.953 30.249 109.917 30.2636 109.877 30.2729C109.84 30.2822 109.803 30.2663 109.772 30.2915C109.742 30.3153 109.721 30.3591 109.703 30.3936C109.681 30.4387 109.667 30.4666 109.703 30.4984C109.739 30.5316 109.774 30.5647 109.807 30.6032C109.892 30.7 109.978 30.7969 110.065 30.8937C110.311 31.1657 110.562 31.4336 110.82 31.695C111.096 31.9736 111.379 32.2468 111.681 32.4962C111.891 32.6674 112.131 32.8703 112.399 32.942C112.41 32.9446 112.421 32.9473 112.432 32.9499C113.196 33.1025 116.25 32.9499 116.25 32.9499V31.5756H116.246Z" fill="#F7A98F"/>
<path d="M149.159 39.0218C148.429 38.0441 147.141 37.7947 146.006 37.6209C145.285 37.5108 144.557 37.4538 143.839 37.3331C143.758 37.3198 143.793 37.1951 143.874 37.2097C144.627 37.3357 145.393 37.3901 146.146 37.5148C147.294 37.7045 148.534 37.9725 149.269 38.9568C149.318 39.0231 149.207 39.0868 149.159 39.0218Z" fill="#7C4415"/>
<path d="M142.294 30.3463C140.827 30.4949 139.37 30.7297 137.931 31.0468C137.85 31.064 137.815 30.9406 137.896 30.9234C139.347 30.6037 140.815 30.3689 142.294 30.219C142.376 30.2097 142.376 30.3384 142.294 30.3463Z" fill="#7C4415"/>
<path d="M115.835 31.0145C115.986 31.3966 116.137 31.7786 116.288 32.1607C116.319 32.2376 116.194 32.2708 116.165 32.1952C116.014 31.8131 115.862 31.431 115.712 31.049C115.681 30.972 115.804 30.9389 115.835 31.0145Z" fill="#7C4415"/>
<path d="M113.887 29.2224C113.034 29.4029 112.189 29.6111 111.351 29.8512C111.271 29.8738 111.238 29.7504 111.317 29.7279C112.155 29.4891 113 29.2795 113.853 29.0991C113.934 29.0818 113.968 29.2052 113.887 29.2224Z" fill="#7C4415"/>
<path d="M111.532 26.7639C111.686 27.7164 112.199 28.5362 112.584 29.4064C112.617 29.4807 112.507 29.547 112.474 29.4714C112.085 28.5919 111.565 27.7628 111.408 26.7984C111.395 26.7161 111.518 26.6816 111.532 26.7639Z" fill="#7C4415"/>
<path d="M113.424 31.4726C112.725 31.1887 111.996 31.0056 111.246 30.9274C111.165 30.9194 111.163 30.7907 111.246 30.7987C112.008 30.8783 112.747 31.06 113.458 31.3479C113.533 31.3797 113.499 31.5044 113.424 31.4726Z" fill="#7C4415"/>
<path d="M126.528 36.8439C126.09 36.4711 125.63 36.1275 125.149 35.8144C125.08 35.7693 125.143 35.6579 125.214 35.7043C125.704 36.024 126.173 36.3743 126.62 36.755C126.682 36.8067 126.591 36.8969 126.528 36.8439Z" fill="#7C4415"/>
<path d="M109.446 30.0115C109.062 30.314 108.668 30.6032 108.263 30.8791C108.194 30.9255 108.13 30.8141 108.198 30.769C108.593 30.4997 108.98 30.2185 109.355 29.9213C109.42 29.8709 109.511 29.9611 109.446 30.0115Z" fill="#7C4415"/>
<path d="M110.627 31.6113C110.487 31.8501 110.471 32.13 110.589 32.382C110.623 32.4563 110.513 32.5213 110.479 32.447C110.341 32.1525 110.353 31.8275 110.517 31.5476C110.558 31.476 110.67 31.541 110.627 31.6113Z" fill="#7C4415"/>
<path d="M151.414 53.0983C147.86 51.5502 144.721 49.1159 142.337 46.0595C142.287 45.9945 142.377 45.9043 142.428 45.9693C144.806 49.0191 147.933 51.4441 151.479 52.9882C151.553 53.02 151.488 53.1301 151.414 53.0983Z" fill="#7FE0C1"/>
<path d="M145.699 42.0456C144.1 42.9808 142.195 43.2859 140.382 42.8972C140.301 42.88 140.336 42.7566 140.417 42.7739C142.195 43.1546 144.065 42.8521 145.634 41.9355C145.706 41.893 145.771 42.0031 145.699 42.0456Z" fill="#7FE0C1"/>
<path d="M151.272 41.1784C151.872 43.163 152.472 45.1462 153.071 47.1308C153.668 49.1047 154.182 51.1331 155.012 53.0261C155.467 54.0622 156.002 55.0624 156.535 56.06C156.573 56.1329 156.463 56.198 156.425 56.125C155.478 54.3527 154.611 52.5817 154.008 50.6595C153.38 48.6616 152.793 46.6505 152.186 44.6447C151.84 43.5012 151.495 42.3564 151.149 41.2129C151.125 41.1333 151.249 41.1001 151.272 41.1784Z" fill="#7FE0C1"/>
<path d="M156.505 51.5939C157.085 51.7769 160.985 57.0408 163.475 58.7919C165.966 60.543 170.907 61.4424 171.159 62.4294C171.411 63.4164 169.966 65.6583 168.544 65.5031C167.121 65.3479 161.293 61.5936 161.293 61.5936C161.293 61.5936 165.48 67.2091 165.046 67.8816C164.612 68.5542 161.64 70.5096 161.152 70.5759C160.665 70.6423 158.033 71.6757 157.399 70.8864C156.765 70.097 151.284 55.4635 151.491 53.5665C151.698 51.6695 155.765 50.6732 155.765 50.6732L156.505 51.5939Z" fill="#F7931E"/>
<path d="M156.481 51.5915C155.827 51.6313 155.383 52.0306 154.957 52.4896C154.558 52.9194 154.214 53.393 153.92 53.8997C153.879 53.9714 153.767 53.9064 153.81 53.8347C154.143 53.263 154.54 52.731 155.002 52.2561C155.424 51.8236 155.86 51.5013 156.481 51.4628C156.564 51.4575 156.564 51.5862 156.481 51.5915Z" fill="#F9D275"/>
<path d="M142.525 25.8953C141.81 25.7029 141.071 25.3739 140.525 24.8685C140.464 24.8128 140.555 24.7213 140.615 24.7783C141.146 25.2678 141.866 25.5849 142.56 25.7719C142.64 25.7931 142.606 25.9165 142.525 25.8953Z" fill="#F9D275"/>
<path d="M137.598 19.1602C137.769 18.3297 136.862 17.8336 136.2 17.6704C135.03 17.3825 133.547 17.5431 132.67 18.4411C132.612 18.5008 132.521 18.4093 132.58 18.3509C133.528 17.3799 135.152 17.2287 136.4 17.5908C137.093 17.7925 137.893 18.3629 137.723 19.1933C137.706 19.2756 137.582 19.2411 137.598 19.1602Z" fill="#F9D275"/>
<path d="M140.835 16.2367C141.211 15.7803 141.698 15.3744 142.283 15.2258C142.761 15.1051 143.176 15.251 143.602 15.462C144.195 15.7565 144.788 15.9475 145.437 16.0828C146.122 16.2261 146.794 16.3627 147.453 16.6055C148.813 17.1056 150.135 17.6972 151.514 18.147C152.893 18.5967 154.307 18.9456 155.738 19.1897C157.373 19.4696 159.03 19.6089 160.688 19.6142C160.771 19.6142 160.771 19.7428 160.688 19.7428C157.92 19.7336 155.156 19.3449 152.494 18.5808C151.109 18.1828 149.777 17.6561 148.44 17.1228C147.807 16.8708 147.17 16.6041 146.508 16.441C145.89 16.2884 145.256 16.1995 144.643 16.0244C144.338 15.9369 144.046 15.8228 143.761 15.6835C143.488 15.5495 143.217 15.3903 142.917 15.328C142.133 15.1661 141.392 15.7618 140.926 16.3256C140.873 16.3906 140.782 16.3004 140.835 16.2367Z" fill="#F9D275"/>
<path d="M160.419 19.6946C158.825 19.6428 157.325 19.0047 155.876 18.3998C154.308 17.7458 152.742 17.1024 151.216 16.3529C149.71 15.6113 148.267 14.7239 146.662 14.2038C145.934 13.9677 145.184 13.8258 144.435 13.6759C143.647 13.518 142.804 13.376 142.016 13.6095C141.048 13.8961 139.891 14.9228 139.773 15.9868C139.764 16.0677 139.635 16.069 139.644 15.9868C139.731 15.212 140.342 14.505 140.932 14.0526C141.544 13.5843 142.213 13.3508 142.985 13.3601C143.742 13.3694 144.482 13.5604 145.223 13.705C146.878 14.0274 148.353 14.7172 149.834 15.5026C151.489 16.3808 153.191 17.1714 154.929 17.8732C156.69 18.5842 158.486 19.5049 160.42 19.5672C160.501 19.5685 160.501 19.6972 160.419 19.6946Z" fill="#F9D275"/>
</svg>
