<svg width="24" height="24" viewBox="0 0 24 24" fill="none" xmlns="http://www.w3.org/2000/svg">
<path fill-rule="evenodd" clip-rule="evenodd" d="M12.4122 10.4777C12.3985 11.5573 13.3744 12.1597 14.1094 12.5179C14.8647 12.8855 15.1184 13.1212 15.1155 13.4498C15.1097 13.9528 14.513 14.1748 13.9545 14.1834C12.9801 14.1985 12.4136 13.9204 11.9632 13.7099L11.6123 15.3523C12.0641 15.5606 12.9008 15.7423 13.7686 15.7502C15.8052 15.7502 17.1377 14.7448 17.1449 13.186C17.1529 11.2078 14.4085 11.0982 14.4272 10.2139C14.4337 9.94585 14.6896 9.65972 15.2503 9.58694C15.5277 9.55022 16.2938 9.52208 17.1622 9.92204L17.5031 8.333C17.0361 8.1629 16.4357 8 15.6884 8C13.7714 8 12.4231 9.01904 12.4122 10.4777ZM20.7786 8.13692C20.4067 8.13692 20.0932 8.35388 19.9534 8.68682L17.044 15.6334H19.0792L19.4842 14.5142H21.9713L22.2062 15.6334H24L22.4347 8.13692H20.7786ZM21.0632 10.162L21.6506 12.977H20.042L21.0632 10.162ZM9.94464 8.13692L8.34042 15.6334H10.2797L11.8832 8.13692H9.94464ZM7.07562 8.13692L5.05698 13.2393L4.24044 8.90084C4.14462 8.41658 3.76626 8.13692 3.34608 8.13692H0.0461398L0 8.3546C0.67746 8.5016 1.44714 8.73872 1.9134 8.9924C2.19876 9.14732 2.28024 9.2828 2.3739 9.65108L3.92046 15.6334H5.97012L9.11226 8.13692H7.07562Z" fill="#1A1F71"/>
</svg>
